<svg xmlns="http://www.w3.org/2000/svg" width="733.75" height="464.75"><defs><clipPath id="a"><path data-name="Rectangle 3585" transform="translate(720 452)" fill="#fff" d="M0 0h13v13H0z"/></clipPath><clipPath id="b"><path data-name="Rectangle 3586" transform="translate(417 7)" fill="#fff" d="M0 0h10v10H0z"/></clipPath><clipPath id="c"><path data-name="Rectangle 3587" transform="translate(82 413)" fill="#fff" d="M0 0h10v10H0z"/></clipPath></defs><g data-name="Group 427318149" fill="none" stroke-linecap="round" stroke-linejoin="round"><path data-name="Path 8938" d="M666.75 6.75c5.1 0 5.1-6 10.2-6s5.1 6 10.2 6 5.1-6 10.2-6 5.1 6 10.2 6 5.1-6 10.2-6" stroke="#28a745" stroke-miterlimit="10" stroke-width="1.5" opacity=".5"/><path data-name="Path 8939" d="M.75 238.75c4.5 0 4.5 5 9 5s4.5-5 9-5 4.5 5 9 5 4.5-5 9-5 4.5 5 9 5" stroke="#232323" stroke-miterlimit="10" stroke-width="1.5" opacity=".2"/><path data-name="Path 8940" d="M76.13 16.75l-6.38 6.734 6.38 6.734 6.38-6.734z" stroke="#28a745" stroke-miterlimit="10" stroke-width="1.5" opacity=".5"/><g data-name="Group 3883" opacity=".2" stroke="#232323" stroke-width="1.5"><path data-name="Path 8941" d="M647.663 307.619l.521-1.9-1.9.521"/><path data-name="Path 8942" d="M642.08 307.398l-6.314 1.707" stroke-dasharray="13.28 13.28"/><path data-name="Path 8943" d="M633.65 309.697l-1.9.521 1.382 1.382"/><path data-name="Path 8944" d="M636.196 314.664l4.584 4.584" stroke-dasharray="13.28 13.28"/><path data-name="Path 8945" d="M642.3 320.768l1.382 1.382.522-1.9"/><path data-name="Path 8946" d="M645.365 316.05l1.73-6.337" stroke-dasharray="13.28 13.28"/></g><path data-name="Path 8947" d="M483.25 387.75a4.5 4.5 0 11-4.5 4.5 4.5 4.5 0 014.5-4.5z" stroke="#28a745" stroke-miterlimit="10" stroke-width="1.5" opacity=".5"/><g data-name="Group 3884" opacity=".1" clip-path="url(#a)" stroke="#232323" stroke-miterlimit="10" stroke-width="2" transform="translate(.75 -.25)"><path data-name="Path 8948" d="M726.484 452.313v12.374"/><path data-name="Path 8949" d="M732.687 458.484h-12.374"/></g><g data-name="Group 3885" opacity=".2" clip-path="url(#b)" stroke="#231f20" stroke-miterlimit="10" stroke-width="1.5" transform="translate(.75 -.25)"><path data-name="Path 8950" d="M421.988 7.241v9.518"/><path data-name="Path 8951" d="M426.759 11.988h-9.518"/></g><g data-name="Group 3886" opacity=".2" clip-path="url(#c)" stroke="#231f20" stroke-miterlimit="10" stroke-width="1.5" transform="translate(.75 -.25)"><path data-name="Path 8952" d="M86.988 413.241v9.518"/><path data-name="Path 8953" d="M91.759 417.988h-9.518"/></g></g></svg>