<svg data-name="Iconly/Light/Heart" xmlns="http://www.w3.org/2000/svg" width="20" height="20"><path d="M9.801 17.378a29.033 29.033 0 01-5.018-3.907 9.992 9.992 0 01-2.389-3.808c-.897-2.788.151-5.979 3.082-6.923a4.982 4.982 0 014.52.76h0a4.989 4.989 0 014.521-.76c2.931.944 3.986 4.136 3.089 6.923a9.992 9.992 0 01-2.388 3.808 29.033 29.033 0 01-5.018 3.907l-.2.122zm3.315-11.5a2.318 2.318 0 011.6 2.018" fill="none" stroke="#212529" stroke-linecap="round" stroke-linejoin="round" stroke-miterlimit="10" stroke-width="1.5"/></svg>