<svg xmlns="http://www.w3.org/2000/svg" width="16.686" height="13.162"><g data-name="Group 3978" fill="#8d9199"><path data-name="Path 8069" d="M16.308 1.314H9.677A1.681 1.681 0 008.064 0a1.644 1.644 0 00-1.613 1.314H.358a.358.358 0 000 .717h6.074a1.681 1.681 0 001.613 1.314 1.644 1.644 0 001.613-1.314h6.651a.358.358 0 100-.717zM8.064 2.648a.956.956 0 01-.956-.956.944.944 0 01.956-.956.956.956 0 010 1.912z"/><path data-name="Path 8070" d="M16.328 6.232H6.272a1.681 1.681 0 00-1.613-1.314 1.644 1.644 0 00-1.613 1.314H.358a.358.358 0 100 .717h2.689A1.681 1.681 0 004.66 8.263a1.644 1.644 0 001.613-1.314h10.055a.358.358 0 100-.717zM4.659 7.546a.956.956 0 01-.956-.956.969.969 0 01.956-.956.956.956 0 010 1.912z"/><path data-name="Path 8071" d="M16.308 11.131h-3.126a1.681 1.681 0 00-1.613-1.314 1.644 1.644 0 00-1.613 1.314H.358a.358.358 0 100 .717h9.578a1.681 1.681 0 001.613 1.314 1.644 1.644 0 001.613-1.314h3.146a.358.358 0 100-.717zm-4.759 1.334a.956.956 0 11.956-.956.944.944 0 01-.956.956z"/></g></svg>