<svg data-name="Iconly/Light/3 User" xmlns="http://www.w3.org/2000/svg" width="18" height="18"><g data-name="3 User" fill="none" stroke="#28a745" stroke-linecap="round" stroke-linejoin="round" stroke-miterlimit="10" stroke-width="1.5"><path data-name="Stroke 1" d="M13.196 8.199a2.176 2.176 0 100-4.352"/><path data-name="Stroke 3" d="M14.197 10.564a7.076 7.076 0 011.067.155 1.753 1.753 0 011.284.733 1.036 1.036 0 010 .888 1.771 1.771 0 01-1.284.738"/><path data-name="Stroke 5" d="M4.718 8.199a2.176 2.176 0 110-4.352"/><path data-name="Stroke 7" d="M3.717 10.564a7.076 7.076 0 00-1.067.155 1.75 1.75 0 00-1.284.733 1.031 1.031 0 000 .888 1.768 1.768 0 001.284.738"/><path data-name="Stroke 9" d="M8.954 11.033c2.435 0 4.515.368 4.515 1.843s-2.067 1.857-4.515 1.857-4.516-.369-4.516-1.844 2.067-1.856 4.516-1.856z"/><path data-name="Stroke 11" d="M8.954 8.929a2.894 2.894 0 112.893-2.894 2.884 2.884 0 01-2.893 2.894z"/></g></svg>