<svg xmlns="http://www.w3.org/2000/svg" width="500" height="403.32"><defs><clipPath id="a"><path fill="none" d="M0 0h500v403.32H0z"/></clipPath></defs><g data-name="Repeat Grid 1" clip-path="url(#a)"><g data-name="Group 3878" transform="translate(-640.737 -168.934)"><g data-name="Group 3839"><g data-name="Group 3836" transform="translate(755.999 189.379)"><circle data-name="Ellipse 7" cx="26.777" cy="26.777" r="26.777" transform="matrix(.683 -.731 .731 .683 0 39.13)" fill="#fbd804"/><path data-name="Path 8849" d="M58.855 43.863a21.854 21.854 0 11-14.991-27.028 21.855 21.855 0 0114.991 27.028z" fill="#ffb900"/></g><g data-name="Group 3838"><g data-name="Group 3837"><path data-name="Path 8850" d="M794.442 215.693c4.589-.1 8.932 1.45 9.4 6l-7.589.774c-.217-1.717-2.019-1.906-3.126-1.793-.7.072-2.952.3-2.811 1.694.318 3.119 13.975-1.549 14.874 7.27.54 5.291-3.4 7.683-8.449 8.57l.9 5.589-4.636.474-.291-5.693c-4.767-.011-9.382-1.777-9.869-6.534l7.59-.775.016.163c.253 2.089 2.633 2.259 3.823 2.137 1.15-.117 3.4-.427 3.241-1.945-.33-3.241-14.016 1.141-14.887-7.39-.5-4.923 3.121-7.2 7.8-8.092l-.865-5.632 4.636-.474z" fill="#fbd804"/></g></g></g><g data-name="Group 3843"><g data-name="Group 3840"><path data-name="Path 8851" d="M719.46 352.898a26.777 26.777 0 11-30.39-22.588 26.778 26.778 0 0130.39 22.588z" fill="#fbd804"/><path data-name="Path 8852" d="M714.589 353.616a21.854 21.854 0 11-24.806-18.435 21.854 21.854 0 0124.806 18.435z" fill="#ffb900"/></g><g data-name="Group 3842"><g data-name="Group 3841"><path data-name="Path 8853" d="M688.756 346.051c4.14-1.981 8.736-2.365 11.037 1.59l-6.594 3.835c-.9-1.475-2.626-.9-3.588-.343-.607.352-2.564 1.493-1.861 2.7 1.576 2.71 12.091-7.177 16.549.484 2.676 4.6.072 8.4-4.162 11.294l3.128 4.718-4.027 2.342-2.613-5.063c-4.347 1.956-9.28 2.252-11.685-1.883l6.594-3.837.081.142c1.093 1.8 3.333.973 4.366.372 1-.582 2.918-1.793 2.148-3.112-1.637-2.816-12.3 6.823-16.61-.589-2.487-4.279-.127-7.848 3.763-10.587l-3.11-4.774 4.025-2.344z" fill="#fbd804"/></g></g></g><g data-name="Group 3847"><g data-name="Group 3844" transform="translate(1069.451 337.015)"><circle data-name="Ellipse 8" cx="26.777" cy="26.777" r="26.777" transform="rotate(-18.505 52.168 8.499)" fill="#fbd804"/><path data-name="Path 8854" d="M52.12 45.939a21.854 21.854 0 11-6.175-30.283 21.855 21.855 0 016.175 30.283z" fill="#ffb900"/></g><g data-name="Group 3846"><g data-name="Group 3845"><path data-name="Path 8855" d="M1107.375 360.086c4.408 1.287 8.085 4.067 7.163 8.55l-7.473-1.543c.31-1.7-1.351-2.425-2.443-2.649-.685-.142-2.907-.6-3.191.772-.634 3.069 13.8 2.723 12 11.4-1.075 5.208-5.553 6.306-10.635 5.635l-.818 5.6-4.564-.94 1.432-5.517c-4.542-1.441-8.413-4.514-7.446-9.2l7.469 1.542-.034.16c-.384 2.069 1.834 2.949 3 3.189 1.132.233 3.37.614 3.677-.883.659-3.191-13.711-3.123-11.979-11.522 1-4.846 5.142-5.931 9.867-5.375l.869-5.632 4.564.942z" fill="#fbd804"/></g></g></g><ellipse data-name="Ellipse 9" cx="250" cy="40.116" rx="250" ry="40.116" transform="translate(640.736 492.021)" fill="#e2e5e0"/><path data-name="Rectangle 3497" fill="#242263" d="M735.739 459.658h317.782v46.661H735.739z"/><g data-name="Group 3850" transform="translate(705.586 238.127)"><rect data-name="Rectangle 3498" width="378.087" height="253.447" rx="10.859" fill="#242263"/><path data-name="Rectangle 3499" fill="#fff" d="M17.408 16.791H360.68v217.24H17.408z"/><path data-name="Path 8856" d="M327.722 234.031a146.321 146.321 0 10-278.46 0z" fill="#2d3192"/><path data-name="Path 8857" d="M327.722 234.031a146.321 146.321 0 10-278.46 0z" fill="#82cec2"/><g data-name="Group 3849"><g data-name="Group 3848" fill="#fbd804"><path data-name="Path 8858" d="M61.646 141.323c9.295.257 4.013 4.731 4.381 12.092.47 9.417 8.087 7.841 13.189 14.02 1.63 1.976 1.673 4.42 3.132 6.511 2.125 3.044 5.416 4.171 8.492 6.009 5.176 3.094 9.207 9.641 14.663 11.644 13.91 5.1-.736-16.748 0-21.186.5-3.013 2.773-3.047 1.552-5.982-1.123-2.7-3.83-3.308-6.086-3.153-1.617.111-3.6 3.563-5.607 2.076-2.685-1.987 1.689-4.512 2.1-5.933 1.567-5.409-6.292-9.2-9.169-4.652-1.256 1.985.815 7.408-2.913 6.2-2.486-.806-4.418-9.3-4.176-11.576 1.027-9.628 8.078-11.432 16.608-11.506 5.946-.05 9 .962 10.271 7.387 1.222 6.158-1.517 8.185 3.889 11.631 6.019 3.839 10.1 1.149 7.112-6.134-1.5-3.652-6.073-8.51-4.34-12.895.659-1.667 3.259-2.843 4.34-4.217 2.024-2.575.055-2.261 3.151-4.284 2.959-1.933 5.924-1.382 7.118-6.009 1.028-3.984-.5-4.146 2.507-7.137 6.036-6.009 10.6 1.463 16.154-1.5a25.031 25.031 0 01-2.909-6.283c1.326-1.637 14.986-.572 7.066-7.121 4.9-2.918 3.991 5.4 8.063 4.553 5.492-1.138-3.8-6.113-3.989-7.035-.808-3.851 5.285-3.887 7.507-2.414 3.2 2.123 1.917 8.412 7.017 7.486.574 4.5 6.193 2.936 6.2-.574.005-3.281-3.92-2.563-3.973-6.511-.056-4.226 3.3-4.015.872-7.913-1.612-2.588-5.249-1.041-4.6-5.535-2-.151-3.8 3.34-4.485 1.428-1.77-4.953-3.934-15.235-10.632-7.965-2.769-2.209-3.894-6.113-7.6-6.057-4.892.074-4.295 5.738-7.092 9.04-1.262 1.49-3.453 2.365-4.707 3.954-1.389 1.761.418 3.959-2.888 4.557-5.511 1-3.844-6.346-3.117-8.952-8.238-.908-5.355-7.934 1.091-8.108 2.417-.065 5.969 1.8 8.621-.09 2.409-1.712 1.587-5.346 4.979-5.33.786 8.833 7.074 1.143 11.139.488-.355 1.007.013 2.85-.352 3.866 13.106 2.014.14-16.066 9.038-19.355 5.795-2.141 6.834 3.019 6.61 7.536-.255 5.151.014 7.376 3.116 10.894 3.293 3.736 6.473 7.8 9.641 1 .591-1.265.242-5.072.967-5.908 1.265-1.459 5.2-1.129 7.014-2.468 6.256-4.619 2.464-12.507-3.062-17.2a145.915 145.915 0 00-50.441 9.278 7.643 7.643 0 00-1.787 3.186 7.162 7.162 0 01-4.851-.506 146.835 146.835 0 00-68.531 60.929 18.045 18.045 0 00.149 2.3 6.165 6.165 0 00.407 1.143c.643 1.766 2.146 6.111 2.01 9.214-.203 4.641-3.656 8.661-2.859 13.067z"/><path data-name="Path 8859" d="M327.917 233.334a146.162 146.162 0 00-27.053-138.019c-3.722-.17-6.687 1.644-8.458 5.9-1.158 2.776-.824 11.753-4.673 12.529-4.126.831-7.512-22.071-15.723-9.4-1.086 1.676-.493 3.923-1.367 5.52-1.229 2.249-2.191 2.2-3.871 3.08 2.557-5-4.445-16.527 2.757-16.186 1.637-3.53-.933-7.259.088-10.942 1.988-7.164 3.516-.741 5.093 2.478.919 1.875 4.763 9.054 8.11 6.572 2.444-1.813-.589-9.544-.465-11.978 2.984.515 3.8 4.684 6.987 5.429a13.726 13.726 0 005.594.357 146.061 146.061 0 00-75.993-42.787 9.281 9.281 0 01.029 3.9c-.511 3.053-2.058 2.5 0 5.51 1.642 2.394 6.082 2.893 8.124 4.982 1.319 1.348 1.642 2.97 3 4.383 1.725 1.789 4.348 2.288 5.707 4.618a28.069 28.069 0 011.863 2.941c-3.1.632-7.841-4.234-9.62-1.438-1.94 3.053 3.381 6.335 4.112 8.525.9 2.69-1.736 7.186 3.013 7.536 4.417.325 2.846-4.752 2.609-7.46 4.989-.61 5.578 3.561 7.649 6.3 2.771 3.661 6.667 2.8 9.494 5.61 5.829 5.795-.96 4.266-3.519 4.408-2.4.133-3.553-.623-5.484 1.651-2.479 2.918-.951 1.321.282 4.106 1.055 2.387 3.6 9.9 5.169 11.3 1.141 1.025 9.837 2.426 12.575 2.2-2.365 2.12-3.554 4.517-5.984 7.43-4.768 5.714-2.338 4.051-1.495 10.5.727 5.571-3.767 7.317-5.226 12.019-1.682 5.418 2.487 11.771 3.15 16.637.621 4.567 2.888 5.215 4.733 8.765 1.429 2.749 1.28 5.616 3.3 8.677 2.9 4.393 10.2 12.236 16.3 11.5 4.273-.511 2.545-4.2 5.154-6.055 2.744-1.949 6.821 1.177 6.57-4.393 1.621.054 5.712 3.01 7.028 2.487 2.432-.969 1.457-5.391 1.583-7.5 6.434-1.084 5.305 7.719 3.85 10.942-.709 1.57-2.811 3.882-2.911 5.535-.183 3.008 1.748 2.168 3.074 4.98 1.48 3.142-.379 8.451-.546 12.019-.113 2.41-.736 3.019-.379 5.51.325 2.265 2 4.189 1.784 6.509-.49 5.368-6.482 6.418-8 10.517a12.389 12.389 0 00-.648 3h32.279c.125-.238.24-.473.355-.704z"/><path data-name="Path 8860" d="M218.869 232.536c2.394-4.02 1.219-10.493-3.442-12.433-2.4-1-5.757.9-8.1-.44-3.638-2.078-1.657-3.762-6.066-4.655-2.766-.558-5.321.791-8 .391-2.807-.422-5.723-4.128-9.228-3.9-5.422-4.388-5.574-9.876-9.244-15.535-3.963-6.111-6.4-4.137-12-3.995-5.531.14-9.253-5.271-14.738-6.524a18.831 18.831 0 00-5.682-.135c-2.581.142-3.187.429-6.471-.224-1.676-.334-4.4-.047-5.939-.517a19.461 19.461 0 01-2.288.036c-.96-.235-.307-2.565-1.865-2.7-1.945-.165-12.065 5.133-12.821 6.56-1.8 3.4 1.735 4.8 2.085 7.507.406 3.121-.809 3.471-2.43 5.648-2.99 4.024-5.379 7.687-5.608 12.992-.165 3.812 1.57 5.041 2.949 8.377 1.385 3.354.691 6.217 1.127 9.666a13.271 13.271 0 00.316 1.371h106.343a17.271 17.271 0 001.102-1.49z"/></g></g></g><path data-name="Path 8861" d="M894.63 498.193H681.711c.111.438-.522 15.251 10.615 23.937 4.173 3.255 10.077 4.872 16.118 4.872h372.37c6.042 0 11.945-1.617 16.12-4.872 11.136-8.686 10.5-23.5 10.614-23.937z" fill="#242263"/><g data-name="Group 3854" transform="translate(766.985 353.153)"><path data-name="Path 8862" d="M157.472 17.753h-10.695v121.4h10.695a8.617 8.617 0 008.831-8.386V26.14a8.617 8.617 0 00-8.831-8.387z" fill="#cbcbcb"/><path data-name="Path 8863" d="M166.303 48.243v-22.1a8.617 8.617 0 00-8.831-8.386h-10.695v30.49z" fill="#242263"/><rect data-name="Rectangle 3500" width="157.898" height="127.843" rx="4.921" transform="translate(0 17.388)" fill="#ebebeb"/><path data-name="Path 8864" d="M157.471 17.388H8.832A8.831 8.831 0 000 26.219v21.764h157.9v-15.54a7.846 7.846 0 01.077-1.111c.63-4.512 7.609-4.519 8.25-.007a8.252 8.252 0 01.077 1.118v-6.3a8.923 8.923 0 00-8.833-8.755z" fill="#f05260"/><path data-name="Rectangle 3501" fill="#f8931d" d="M0 45.139h157.898v2.845H0z"/><g data-name="Group 3851"><path data-name="Path 8865" d="M63.594 17.753h-8.665s.969-12.155-2.457-14.937V.165S63.594 1.33 63.594 17.753z" fill="#242263"/><path data-name="Path 8866" d="M33.233 17.753H48.22S46.542 5.598 52.47 2.816l3.6-1.368A8.745 8.745 0 0050.691 0c-4.766 0-17.458.8-17.458 17.753z" fill="#fff"/></g><g data-name="Group 3852"><path data-name="Path 8867" d="M131.6 17.753h-8.665s.969-12.155-2.457-14.937V.165S131.6 1.33 131.6 17.753z" fill="#242263"/><path data-name="Path 8868" d="M101.246 17.753h14.987s-1.678-12.155 4.25-14.937l3.6-1.368A8.75 8.75 0 00118.703 0c-4.772 0-17.457.8-17.457 17.753z" fill="#fff"/></g><path data-name="Rectangle 3502" fill="#fff" d="M10.863 55.349h16.915v12.823H10.863z"/><path data-name="Rectangle 3503" fill="#fff" d="M34.714 55.349h16.915v12.823H34.714z"/><path data-name="Rectangle 3504" fill="#fff" d="M58.566 55.349h16.915v12.823H58.566z"/><path data-name="Rectangle 3505" fill="#fff" d="M82.417 55.349h16.915v12.823H82.417z"/><path data-name="Rectangle 3506" fill="#fff" d="M106.269 55.349h16.915v12.823h-16.915z"/><path data-name="Rectangle 3507" fill="#fff" d="M130.12 55.349h16.915v12.823H130.12z"/><path data-name="Rectangle 3508" fill="#fff" d="M10.863 77.244h16.915v12.823H10.863z"/><path data-name="Rectangle 3509" fill="#fff" d="M34.714 77.244h16.915v12.823H34.714z"/><path data-name="Rectangle 3510" fill="#fff" d="M58.566 77.244h16.915v12.823H58.566z"/><path data-name="Rectangle 3511" fill="#fff" d="M82.417 77.244h16.915v12.823H82.417z"/><path data-name="Rectangle 3512" fill="#fff" d="M106.269 77.244h16.915v12.823h-16.915z"/><path data-name="Rectangle 3513" fill="#fff" d="M130.12 77.244h16.915v12.823H130.12z"/><path data-name="Rectangle 3514" fill="#fff" d="M10.863 99.14h16.915v12.823H10.863z"/><path data-name="Rectangle 3515" fill="#fff" d="M34.714 99.14h16.915v12.823H34.714z"/><path data-name="Rectangle 3516" fill="#fff" d="M58.566 99.14h16.915v12.823H58.566z"/><path data-name="Rectangle 3517" fill="#fff" d="M82.417 99.14h16.915v12.823H82.417z"/><path data-name="Rectangle 3518" fill="#fff" d="M106.269 99.14h16.915v12.823h-16.915z"/><path data-name="Rectangle 3519" fill="#fff" d="M130.12 99.14h16.915v12.823H130.12z"/><path data-name="Rectangle 3520" fill="#fff" d="M10.863 121.035h16.915v12.823H10.863z"/><path data-name="Rectangle 3521" fill="#fff" d="M34.714 121.035h16.915v12.823H34.714z"/><path data-name="Rectangle 3522" fill="#fff" d="M58.566 121.035h16.915v12.823H58.566z"/><path data-name="Rectangle 3523" fill="#fff" d="M82.417 121.035h16.915v12.823H82.417z"/><path data-name="Path 8869" d="M19.315 56.484l1.31 4.031h4.238l-3.429 2.491 1.309 4.031-3.429-2.491-3.429 2.491 1.31-4.031-3.429-2.491h4.249z" fill="#fbd804"/><path data-name="Path 8870" d="M19.315 78.622l1.31 4.031h4.238l-3.429 2.491 1.309 4.031-3.429-2.491-3.429 2.491 1.31-4.031-3.429-2.491h4.249z" fill="#fbd804"/><path data-name="Path 8871" d="M43.176 56.484l1.31 4.031h4.238l-3.429 2.491 1.309 4.031-3.429-2.491-3.429 2.491 1.31-4.031-3.429-2.491h4.238z" fill="#fbd804"/><path data-name="Path 8872" d="M67.023 56.484l1.31 4.031h4.238l-3.433 2.491 1.31 4.031-3.429-2.491-3.429 2.491 1.31-4.031-3.429-2.491h4.238z" fill="#fbd804"/><path data-name="Path 8873" d="M67.023 78.379l1.31 4.031h4.238l-3.433 2.491 1.31 4.031-3.429-2.491-3.429 2.491 1.31-4.031-3.429-2.491h4.238z" fill="#fbd804"/><path data-name="Path 8874" d="M90.875 56.484l1.31 4.031h4.238l-3.429 2.491 1.31 4.031-3.429-2.491-3.429 2.491 1.31-4.031-3.429-2.491h4.238z" fill="#fbd804"/><path data-name="Path 8875" d="M90.875 78.379l1.31 4.031h4.238l-3.429 2.491 1.31 4.031-3.429-2.491-3.429 2.491 1.31-4.031-3.429-2.491h4.238z" fill="#fbd804"/><path data-name="Path 8876" d="M114.726 56.484l1.31 4.031h4.238l-3.429 2.491 1.309 4.031-3.429-2.491-3.429 2.491 1.31-4.031-3.429-2.491h4.238z" fill="#fbd804"/><path data-name="Path 8877" d="M43.176 100.546l1.31 4.031h4.238l-3.429 2.491 1.309 4.031-3.429-2.491-3.429 2.491 1.31-4.031-3.429-2.491h4.238z" fill="#fbd804"/><path data-name="Path 8878" d="M43.176 122.17l1.31 4.031h4.238l-3.429 2.491 1.309 4.031-3.429-2.491-3.429 2.491 1.31-4.031-3.429-2.491h4.238z" fill="#fbd804"/><path data-name="Path 8879" d="M90.875 100.275l1.31 4.031h4.238l-3.429 2.491 1.31 4.031-3.429-2.491-3.429 2.491 1.31-4.031-3.429-2.491h4.238z" fill="#fbd804"/><path data-name="Path 8880" d="M114.726 100.275l1.31 4.031h4.238l-3.429 2.491 1.309 4.031-3.429-2.491-3.429 2.491 1.31-4.031-3.429-2.491h4.238z" fill="#fbd804"/><g data-name="Group 3853" transform="translate(125.964 36.461)"><circle data-name="Ellipse 10" cx="26.1" cy="26.1" r="26.1" transform="rotate(-79.07 31.05 25.627)" fill="#652d90"/><circle data-name="Ellipse 11" cx="18.923" cy="18.923" r="18.923" transform="translate(11.652 11.652)" fill="#fff"/><path data-name="Path 8881" d="M29.032 30.44c-.438-.011-4.191-10.795-5.459-10.371-1.782.594-6.655 2.947-6.775 4.978s9.829 19.515 11.493 19.515c3.5 0 18.194-19.4 17-21.6s-6.732-5.23-7.565-4.4c-.609.622-8.317 11.887-8.694 11.878z" fill="#f8931d"/></g></g><g data-name="Group 3859"><path data-name="Path 8882" d="M789.245 393.309c21.326 27.336 15.782 21.836 19.723 25.312s29.89 18.537 29.89 18.537l-2.78 12.975s-31.744-18.072-35.683-21.317-19.115-19.695-19.115-19.695z" fill="#652d90"/><path data-name="Path 8883" d="M826.332 431.812a5.252 5.252 0 01-5.576.185 127.085 127.085 0 01-12.782-7.5 39.935 39.935 0 01-6.8-5.176 103.353 103.353 0 01-10.5-11.193c-1.674-2.139-4.007-3.869-5.958-5.84l-3.44 6.834s15.176 16.452 19.115 19.695 35.683 21.317 35.683 21.317l2.751-12.841a152.806 152.806 0 01-12.493-5.481z" fill="#406"/><path data-name="Path 8884" d="M784.325 544.397a26.293 26.293 0 00-1.338 6.862c-.014 2.994.2 6.174 1.12 6.926 1.836 1.5 25.05 1.7 26.94-.447s.63-5.614-4.287-6.814c-5.271-1.285-6.007-.736-9.325-2s-2.514-4.987-2.514-4.987z" fill="#242263"/><path data-name="Path 8885" d="M733.403 540.035a26.339 26.339 0 00-3.7 5.935c-1.079 2.792-2.01 5.842-1.422 6.872 1.179 2.058 22.8 10.513 25.33 9.183s2.59-5.023-1.578-7.895c-4.467-3.081-5.35-2.83-8-5.19s-.573-5.558-.573-5.558z" fill="#242263"/><path data-name="Path 8886" d="M784.174 445.731l-31.279 3.476s27.973 44.719 30.089 51.9-.779 46.225-.779 46.225h14.164s3.04-46.11 2.346-49.585-14.541-52.016-14.541-52.016z" fill="#f05260"/><path data-name="Path 8887" d="M782.985 448.048h-35.709s-4.171 10.949-2.26 19.289 3.186 26.068 3.013 29.2-17.611 44.834-17.611 44.834l13 4.835s17.929-39.764 19.668-44.281 19.899-53.877 19.899-53.877z" fill="#f05260"/><path data-name="Path 8888" d="M781.473 374.174a31.8 31.8 0 01-8.622-.684 12.839 12.839 0 01-2.931-1.028c-.3 3.588-1.312 11.96-4.282 15.111 0 0 .406 4.228 7.819 5.271s8.946-4.46 8.946-4.46-1.43-8.925-.93-14.21z" fill="#fcd4ca"/><path data-name="Path 8889" d="M765.662 387.708c.014.075.039.179.077.307l.013.039a4.2 4.2 0 00.178.461l.009.022a5.384 5.384 0 00.312.574l.054.084a6.205 6.205 0 001.2 1.337l.09.075a7.754 7.754 0 00.94.651c.045.027.1.054.144.081a10.092 10.092 0 001.247.607 10.556 10.556 0 012.843-5 13.212 13.212 0 018.97-3.825 50.78 50.78 0 01-.266-8.948 31.8 31.8 0 01-8.622-.684 12.839 12.839 0 01-2.931-1.028c-.3 3.588-1.312 11.96-4.282 15.111l.014.092z" fill="#e8a393"/><path data-name="Path 8890" d="M769.434 352.826s12.421-3.056 14.237 0 1.242 7.836 1.958 9.986 3.656 4.515 3.941 5.375-2.15 2.365-2.507 3.01-1.911 7.525-4.11 8.959-13.422-3.153-16-8.672-.885-17.03 2.481-18.658z" fill="#fcd4ca"/><path data-name="Path 8891" d="M782.405 387.131s-8.72 4.332-15.8-.872c0 0-13.48 2.356-15.133 3.028-1.371.558 2.233 19.747.668 29.391s-7.819 33.018-7.819 33.018 16.509 12.685 44.834 4.691c0 0 .924-32.774.623-41.88-.443-13.324-.535-21.2-.535-21.2a82.022 82.022 0 00-6.838-6.176z" fill="#652d90"/><path data-name="Path 8892" d="M761.781 440.171c-1.235-5.066-2.1-10.012-1.21-15.251.962-5.675-3.108-13.153-3.869-18.927-.813-6.175-1.448-10.37-5.506-13.787.275 5.824 2.159 19 .946 26.473-1.563 9.645-7.819 33.018-7.819 33.018s10.484 8 29.03 7.254c-7.31-4.417-9.527-10.375-11.572-18.78z" fill="#406"/><path data-name="Path 8893" d="M702.963 450.13l20.506 55.146 125.121-43.792-19.927-54.451z" fill="#f8931d"/><path data-name="Path 8894" d="M714.339 455.709l14.191 39.592 109.893-39.143-14.511-39.4z" fill="#fff"/><path data-name="Path 8895" d="M822.697 442.401a6.865 6.865 0 11-6.865-6.865 6.864 6.864 0 016.865 6.865z" fill="#f8931d"/><path data-name="Path 8896" d="M742.236 469.186a6.865 6.865 0 11-6.865-6.865 6.865 6.865 0 016.865 6.865z" fill="#f8931d"/><g data-name="Group 3858"><g data-name="Group 3855" transform="translate(757.568 436.417)"><path data-name="Path 8897" d="M35.895 19.561A17.1 17.1 0 1119.56 1.731a17.1 17.1 0 0116.335 17.83z" fill="#f8931d"/><circle data-name="Ellipse 12" cx="13.955" cy="13.955" r="13.955" transform="rotate(-62.61 20.37 12.387)" fill="#fff"/></g><g data-name="Group 3857"><g data-name="Group 3856"><path data-name="Path 8898" d="M775.034 447.981c2.837-.743 5.765-.429 6.73 2.329l-4.6 1.61c-.389-1.034-1.536-.883-2.207-.648-.422.147-1.789.626-1.493 1.47.662 1.89 8.448-3.042 10.319 2.3 1.124 3.205-.969 5.276-3.971 6.579l1.391 3.336-2.807.984-1.028-3.491c-2.961.7-6.091.293-7.1-2.592l4.6-1.61.034.1c.47 1.258 1.972 1.01 2.694.757.7-.244 2.046-.772 1.723-1.691-.687-1.963-8.533 2.794-10.346-2.374-1.043-2.981.867-4.935 3.638-6.184l-1.375-3.369 2.809-.984z" fill="#f8931d"/></g></g></g><path data-name="Path 8899" d="M774.778 354.582a12.181 12.181 0 01-1.581 6.274c-.8 1.43 2.681 5.5 1.581 7.222-.732 1.149-1.71.8-2.505-1.567a3.542 3.542 0 00-1.9-1.784c-2.941-1.436-3.848 3.1-1.22 4.585 1.84 1.037.5 5.752.5 5.752-2.093 1.463-8.688-.72-7.733-5.563.609-3.085.869-4.259-.185-5.065-1.908-1.461-4.3-5.379-.906-8.455 4.67-4.235.66-5.833 5.885-6.877s9.343 2.303 8.064 5.478z" fill="#242263"/><path data-name="Path 8900" d="M765.757 351.552c.343-1.113 2.446-2.471 3.489-3.178a14.934 14.934 0 015.4-2.143 13.654 13.654 0 015.9.072c1.66.4 3.031 1.206 4.738 1.479a5.546 5.546 0 004.311-.632 10.933 10.933 0 01.032 3.885 12.125 12.125 0 01-2.4 4.162c-2.656 3.6-9.513 5.339-14.192 3.16-2.261-1.052-4.291-1.965-5.33-4.02a11.989 11.989 0 00-1.948-2.785z" fill="#242263"/><path data-name="Path 8901" d="M844.983 446.353c2.611-1.353 3.169-5.1 2.609-7.563-.45-1.994-2.446-2.462-5.346-3.255-1.96-.535-3.823-.955-4.524-.538-2.166 2.06 4.476 3.32 6.089 4.015 0 0-6.865-2.172-7.69-1.043-1.477 2.129 5.036 3.207 6.608 3.758-1.463-.705-4.306-1.263-4.785-1.028-1.26-.21-1.185.793-1.086 1.05.5 1.312 5.822 2.259 5.822 2.259-.942-.169-4.286-1.52-3.851.131.284 1.075 1.779 1.4 2.548 1.737a5.266 5.266 0 003.606.477z" fill="#fcd4ca"/><path data-name="Path 8902" d="M758.838 439.891c2.451-.1 5.432.366 7.959.366 1.154 0 2.346-.169 3.489-.235.723-.043 2.191-.287 2.615.52.463.885-.987 1.2-1.558 1.324-.825.18-2.536.066-2.69 1.172-.226 1.6 2.778 2.033 3.95 2.547 1.086.477 3.966 1.491 2.078 2.556-1.272.716-3.95-.919-5.032-1.357a16.569 16.569 0 013.939 1.642c.737.424 2.188 1.009 2.188 1.838 0 1.217-2.69.486-3.354.2a11.976 11.976 0 01-2.994-1.655c1.131.6 5.276 2.355 3.92 3.792-.829.878-4.069-1.59-5.361-2.114.709.655 2.836 1 2.663 2.383-.088.7-1.29.142-1.868-.172-.813-.443-1.54-1.089-2.358-1.477a11.775 11.775 0 01-1.757-1.174c-1.468-1.044-2.8-1.292-4.068-2.653a45.528 45.528 0 00-3.526-3.606c2.359-.869-.046-2.63 1.765-3.897z" fill="#fcd4ca"/><path data-name="Path 8903" d="M762.425 439.243l-3.476 8.033s-35.888-11.642-34.207-21.069c1.477-8.272 22.36-35.987 26.909-36.981 6.114-1.337 8.562 13.232 5.05 16.764-7.4 7.448-17.97 17.923-17.1 19.612s22.824 13.641 22.824 13.641z" fill="#652d90"/></g><g data-name="Group 3870"><path data-name="Path 8904" d="M1010.298 397.141s-6.321 22.8-9.431 26.531-13.264 9.223-13.264 9.223l2.694 4.767s18.456-9.406 21.66-17.1a58.179 58.179 0 003.731-11.814c.508-2.821 2.593-9.84 1.554-12.642-.678-1.827-5.493-2.8-6.944 1.035z" fill="#82cec2"/><path data-name="Path 8905" d="M1010.298 397.141s-6.321 22.8-9.431 26.531-13.264 9.223-13.264 9.223l2.694 4.767s18.456-9.406 21.66-17.1a58.179 58.179 0 003.731-11.814c.508-2.821 2.593-9.84 1.554-12.642-.678-1.827-5.493-2.8-6.944 1.035z" fill="#29286a"/><path data-name="Path 8906" d="M946.959 505.971l-4.659-4.352s-18.629-1.369-19.718.266 17.667 10.481 20.073 10.321 3.988-4.443 4.304-6.235z" fill="#82cec2"/><path data-name="Path 8907" d="M981.11 442.94s-17.618-4.483-19.068-1.583-19.742 60.258-19.742 60.258l4.659 4.352s19.614-48.409 25.294-53.47 11.482-7.559 8.857-9.557z" fill="#fcd4ca"/><path data-name="Path 8908" d="M981.11 442.94s-17.618-4.483-19.068-1.583-19.742 60.258-19.742 60.258l4.659 4.352s19.614-48.409 25.294-53.47 11.482-7.559 8.857-9.557z" fill="#e8a393"/><g data-name="Group 3866"><g data-name="Group 3860"><path data-name="Rectangle 3524" fill="#fbd804" d="M972.594 535.714h87.046v14.995h-87.046z"/><path data-name="Rectangle 3525" fill="#ffb900" d="M977.462 535.714h4.382v14.995h-4.382z"/><path data-name="Rectangle 3526" fill="#ffb900" d="M986.663 535.714h4.381v14.995h-4.381z"/><path data-name="Rectangle 3527" fill="#ffb900" d="M995.865 535.714h4.381v14.995h-4.381z"/><path data-name="Rectangle 3528" fill="#ffb900" d="M1005.066 535.714h4.381v14.995h-4.381z"/><path data-name="Rectangle 3529" fill="#ffb900" d="M1014.267 535.714h4.381v14.995h-4.381z"/><path data-name="Rectangle 3530" fill="#ffb900" d="M1023.468 535.714h4.381v14.995h-4.381z"/><path data-name="Rectangle 3531" fill="#ffb900" d="M1032.67 535.714h4.381v14.995h-4.381z"/><path data-name="Rectangle 3532" fill="#ffb900" d="M1041.871 535.714h4.381v14.995h-4.381z"/><path data-name="Rectangle 3533" fill="#ffb900" d="M1051.072 535.714h4.381v14.995h-4.381z"/></g><g data-name="Group 3861"><path data-name="Rectangle 3534" fill="#fbd804" d="M961.543 520.719h87.047v14.994h-87.047z"/><path data-name="Rectangle 3535" fill="#ffb900" d="M966.412 520.719h4.381v14.994h-4.381z"/><path data-name="Rectangle 3536" fill="#ffb900" d="M975.613 520.719h4.381v14.994h-4.381z"/><path data-name="Rectangle 3537" fill="#ffb900" d="M984.814 520.719h4.381v14.994h-4.381z"/><path data-name="Rectangle 3538" fill="#ffb900" d="M994.015 520.719h4.381v14.994h-4.381z"/><path data-name="Rectangle 3539" fill="#ffb900" d="M1003.216 520.719h4.381v14.994h-4.381z"/><path data-name="Rectangle 3540" fill="#ffb900" d="M1012.417 520.719h4.382v14.994h-4.382z"/><path data-name="Rectangle 3541" fill="#ffb900" d="M1021.619 520.719h4.382v14.994h-4.382z"/><path data-name="Rectangle 3542" fill="#ffb900" d="M1030.82 520.719h4.382v14.994h-4.382z"/><path data-name="Rectangle 3543" fill="#ffb900" d="M1040.021 520.719h4.382v14.994h-4.382z"/></g><g data-name="Group 3862"><path data-name="Rectangle 3544" fill="#fbd804" d="M976.489 505.725h87.047v14.995h-87.047z"/><path data-name="Rectangle 3545" fill="#ffb900" d="M981.358 505.725h4.381v14.995h-4.381z"/><path data-name="Rectangle 3546" fill="#ffb900" d="M990.559 505.725h4.381v14.995h-4.381z"/><path data-name="Rectangle 3547" fill="#ffb900" d="M999.76 505.725h4.381v14.995h-4.381z"/><path data-name="Rectangle 3548" fill="#ffb900" d="M1008.961 505.725h4.381v14.995h-4.381z"/><path data-name="Rectangle 3549" fill="#ffb900" d="M1018.162 505.725h4.381v14.995h-4.381z"/><path data-name="Rectangle 3550" fill="#ffb900" d="M1027.364 505.725h4.381v14.995h-4.381z"/><path data-name="Rectangle 3551" fill="#ffb900" d="M1036.565 505.725h4.381v14.995h-4.381z"/><path data-name="Rectangle 3552" fill="#ffb900" d="M1045.766 505.725h4.381v14.995h-4.381z"/><path data-name="Rectangle 3553" fill="#ffb900" d="M1054.967 505.725h4.381v14.995h-4.381z"/></g><g data-name="Group 3863"><path data-name="Rectangle 3554" fill="#fbd804" d="M968.894 490.73h87.046v14.995h-87.046z"/><path data-name="Rectangle 3555" fill="#ffb900" d="M973.762 490.73h4.381v14.995h-4.381z"/><path data-name="Rectangle 3556" fill="#ffb900" d="M982.963 490.73h4.381v14.995h-4.381z"/><path data-name="Rectangle 3557" fill="#ffb900" d="M992.165 490.73h4.381v14.995h-4.381z"/><path data-name="Rectangle 3558" fill="#ffb900" d="M1001.366 490.73h4.381v14.995h-4.381z"/><path data-name="Rectangle 3559" fill="#ffb900" d="M1010.567 490.73h4.381v14.995h-4.381z"/><path data-name="Rectangle 3560" fill="#ffb900" d="M1019.768 490.73h4.381v14.995h-4.381z"/><path data-name="Rectangle 3561" fill="#ffb900" d="M1028.969 490.73h4.381v14.995h-4.381z"/><path data-name="Rectangle 3562" fill="#ffb900" d="M1038.171 490.73h4.381v14.995h-4.381z"/><path data-name="Rectangle 3563" fill="#ffb900" d="M1047.372 490.73h4.381v14.995h-4.381z"/></g><g data-name="Group 3864"><path data-name="Rectangle 3564" fill="#fbd804" d="M957.843 475.736h87.046v14.995h-87.046z"/><path data-name="Rectangle 3565" fill="#ffb900" d="M962.711 475.736h4.382v14.995h-4.382z"/><path data-name="Rectangle 3566" fill="#ffb900" d="M971.913 475.736h4.382v14.995h-4.382z"/><path data-name="Rectangle 3567" fill="#ffb900" d="M981.114 475.736h4.382v14.995h-4.382z"/><path data-name="Rectangle 3568" fill="#ffb900" d="M990.315 475.736h4.382v14.995h-4.382z"/><path data-name="Rectangle 3569" fill="#ffb900" d="M999.516 475.736h4.382v14.995h-4.382z"/><path data-name="Rectangle 3570" fill="#ffb900" d="M1008.717 475.736h4.382v14.995h-4.382z"/><path data-name="Rectangle 3571" fill="#ffb900" d="M1017.919 475.736h4.382v14.995h-4.382z"/><path data-name="Rectangle 3572" fill="#ffb900" d="M1027.12 475.736h4.382v14.995h-4.382z"/><path data-name="Rectangle 3573" fill="#ffb900" d="M1036.321 475.736h4.382v14.995h-4.382z"/></g><g data-name="Group 3865"><path data-name="Rectangle 3574" fill="#fbd804" d="M969.576 460.741h87.047v14.995h-87.047z"/><path data-name="Rectangle 3575" fill="#ffb900" d="M974.444 460.741h4.381v14.995h-4.381z"/><path data-name="Rectangle 3576" fill="#ffb900" d="M983.645 460.741h4.381v14.995h-4.381z"/><path data-name="Rectangle 3577" fill="#ffb900" d="M992.847 460.741h4.381v14.995h-4.381z"/><path data-name="Rectangle 3578" fill="#ffb900" d="M1002.048 460.741h4.381v14.995h-4.381z"/><path data-name="Rectangle 3579" fill="#ffb900" d="M1011.249 460.741h4.381v14.995h-4.381z"/><path data-name="Rectangle 3580" fill="#ffb900" d="M1020.45 460.741h4.381v14.995h-4.381z"/><path data-name="Rectangle 3581" fill="#ffb900" d="M1029.652 460.741h4.381v14.995h-4.381z"/><path data-name="Rectangle 3582" fill="#ffb900" d="M1038.853 460.741h4.381v14.995h-4.381z"/><path data-name="Rectangle 3583" fill="#ffb900" d="M1048.054 460.741h4.381v14.995h-4.381z"/></g></g><g data-name="Group 3867"><path data-name="Path 8909" d="M990.195 432.377a15.7 15.7 0 01-3.663-1.47 4.872 4.872 0 00-3.108-.881c-.838.12-7.608 2.94-5.806 4.2.585.407 2.046-.307 2.629-.517.831-.3 1.667-.7 2.464-1.059-.727-.036-4.388 1.515-4 2.371.675 1.5 4.382-.506 5.244-.989-.659.1-2.951.962-2.947 1.8 0 1.314 2.728.217 3.318-.084a4.023 4.023 0 011.242-.6 4.937 4.937 0 011.658.293 9.655 9.655 0 002.886.056c.565-.052 1.879.068 2.159-.416a2.08 2.08 0 00-.364-2.055 4.148 4.148 0 00-1.712-.649z" fill="#fcd4ca"/><path data-name="Path 8910" d="M990.195 432.377a15.7 15.7 0 01-3.663-1.47 4.872 4.872 0 00-3.108-.881c-.838.12-7.608 2.94-5.806 4.2.585.407 2.046-.307 2.629-.517.831-.3 1.667-.7 2.464-1.059-.727-.036-4.388 1.515-4 2.371.675 1.5 4.382-.506 5.244-.989-.659.1-2.951.962-2.947 1.8 0 1.314 2.728.217 3.318-.084a4.023 4.023 0 011.242-.6 4.937 4.937 0 011.658.293 9.655 9.655 0 002.886.056c.565-.052 1.879.068 2.159-.416a2.08 2.08 0 00-.364-2.055 4.148 4.148 0 00-1.712-.649z" fill="#e8a393"/></g><g data-name="Group 3869"><g data-name="Group 3868" fill="#242263"><path data-name="Path 8911" d="M959.675 401.928l-4.143 1.7 14.234 34.346 4.191-2.263z"/><path data-name="Rectangle 3584" d="M972.439 435.113h27.1v4.21h-27.1z"/></g></g><path data-name="Path 8912" d="M1047.466 415.535c-3.625-2.075-4.232-4.363-2.224-11.947s-3.247-15.447-8.3-17.529c-3.713-1.529-6.972-2.2-9.23-6.159s2.021-12.4-5.131-18.648c-5.21-4.553-12.686-.917-12.686-.917-1.608-.89-2.27 8.489-2.387 15.543 9.054 13.86 6.475 31.968 3.175 47.483a7.128 7.128 0 01-.332 1.041c.713 12.008 1.283 21.951 1.283 21.951s21.77 12.324 36.57 1.773 6.523-28.436-.738-32.591z" fill="#242263"/><path data-name="Path 8913" d="M983.46 503.122l-5.528 3.178s-6.77 17.41-5.528 18.93 15.2-13.817 15.754-16.166-3.074-5.113-4.698-5.942z" fill="#82cec2"/><path data-name="Path 8914" d="M990.505 441.912s-35.509 2.486-38.826 5.664 26.832 58.391 26.832 58.391l4.948-2.845s-7.462-26.254-9.4-32.333-5.664-13.4-4.973-14.37 36.478 4.42 36.2-5.666-14.781-8.841-14.781-8.841z" fill="#fcd4ca"/><path data-name="Path 8915" d="M1008.019 382.011s3.729 10.156 1.45 17.722l12.435-3.006s-5.088-17-7.263-19.9-6.622 5.184-6.622 5.184z" fill="#fcd4ca"/><path data-name="Path 8916" d="M1013.2 391.131a6.2 6.2 0 016.376 6.158l2.328-.562s-5.088-17-7.263-19.9-6.622 5.181-6.622 5.181a41.9 41.9 0 012.089 9.86 6.549 6.549 0 013.092-.737z" fill="#e8a393"/><path data-name="Path 8917" d="M1006.728 368.776s-4.831 2.308-5.985 4.255-.145 4.639-.24 6.418-.587 4.424-.318 4.856 2.048 0 2.337.384 2.6 1.827 3.317 3.462 1.683 1.779 3.367.962 8.124-9.327 8.2-13.318-5.889-8.655-10.678-7.019z" fill="#fcd4ca"/><path data-name="Path 8918" d="M1010.824 363.359s-2.254 4.51-2.487 6.3 1.477 7.073 2.487 7.773.156-5.908 2.721-3.887-.156 5.831 0 6.608a4.749 4.749 0 003.965 3.5c2.644.233 7-12.9 4.12-16.168s-7.775-4.126-10.806-4.126z" fill="#242263"/><path data-name="Path 8919" d="M1011.264 360.717a7.131 7.131 0 00-8.679.388c-4.431 3.577-4.277 8.939-7.931 8.473 0 0 2.41 6.22 7.7 4.743s10.751-9.873 8.91-13.604z" fill="#242263"/><path data-name="Path 8920" d="M1025.74 430.995l-16.471-1.244s-8.571 9.573-17.037 9.573h-28.948s1.461 12.046 8.43 21.6c0 0 27.6 2.03 41.008.924s26.144-15.882 13.018-30.853z" fill="#f05260"/><path data-name="Path 8921" d="M1027.278 432.928a28.943 28.943 0 00-1.538-1.933l-16.471-1.244s-8.343 9.3-16.7 9.549c10.092 1.022 29.37 3.254 34.709-6.372z" fill="#ca0045" opacity=".32" style="mix-blend-mode:multiply;isolation:isolate"/><path data-name="Path 8922" d="M970.928 441.257c4.2-.409 8.272-1.411 12.4-1.933h-18.16c1.798.921 2.681 2.234 5.76 1.933z" fill="#ca0045" opacity=".32" style="mix-blend-mode:multiply;isolation:isolate"/><path data-name="Path 8923" d="M1020.325 390.992s-7.561 2.974-10.124 3.25c0 0-5.326 11.744-7.4 14.921s5.255 15.337 5.668 20.589c0 0 4.4 4.2 17.746 1.619.001-.001 3.482-32.99-5.89-40.379z" fill="#2d3192"/><path data-name="Path 8924" d="M1022.353 398.007c-2.315-1.061-6.339.025-7.464 2.344-1.395 2.871.038 7.97-.131 11.075a60.22 60.22 0 01-1.208 10.786 22.413 22.413 0 01-4.347 8.054c1.71 1.036 6.665 3.108 17.015 1.1 0 0 2.123-20.115-1.409-32.449-.966-.325-1.856-.634-2.456-.91z" fill="#29286a"/><path data-name="Path 8925" d="M992.781 432.377a15.694 15.694 0 01-3.661-1.47 4.877 4.877 0 00-3.108-.881c-.838.12-7.608 2.94-5.806 4.2.585.407 2.044-.307 2.629-.517.829-.3 1.667-.7 2.464-1.059-.729-.036-4.39 1.515-4.006 2.371.676 1.5 4.382-.506 5.246-.989-.659.1-2.951.962-2.949 1.8.005 1.314 2.728.217 3.32-.084a3.986 3.986 0 011.242-.6 4.945 4.945 0 011.658.293 9.653 9.653 0 002.886.056c.565-.052 1.877.068 2.159-.416a2.085 2.085 0 00-.364-2.055 4.147 4.147 0 00-1.71-.649z" fill="#fcd4ca"/><path data-name="Path 8926" d="M991.645 432.21l1.45 5.452s35.649-4.146 36.478-10.467-1.45-35.75-10.052-32.693-.1 24.4-1.45 26.06-26.426 11.648-26.426 11.648z" fill="#2d3192"/></g><g data-name="Group 3877"><g data-name="Group 3874"><g data-name="Group 3873"><g data-name="Group 3871"><path data-name="Path 8927" d="M837.965 236.993a1.383 1.383 0 01-1.134-2.177s.876-1.256 2.5-3.376a1.385 1.385 0 112.2 1.682c-1.567 2.046-2.417 3.266-2.428 3.279a1.374 1.374 0 01-1.138.592z" fill="#f05260"/></g><g data-name="Group 3872"><path data-name="Path 8928" d="M988.621 256.823a25.953 25.953 0 01-4.671-.416 1.386 1.386 0 01.5-2.726 17.29 17.29 0 007.724-.109 1.384 1.384 0 11.709 2.676 16.71 16.71 0 01-4.262.575zm-12.215-3.356a1.386 1.386 0 01-.711-.194 32.8 32.8 0 01-6.8-5.513 1.386 1.386 0 112-1.918 30.007 30.007 0 006.224 5.052 1.384 1.384 0 01-.711 2.574zm23.657-.838a1.384 1.384 0 01-.786-2.525 50.916 50.916 0 006.3-5.248 1.382 1.382 0 111.918 1.99 52.86 52.86 0 01-6.646 5.54 1.379 1.379 0 01-.785.243zm-35.475-10.98a1.383 1.383 0 01-1.133-.589c-1.457-2.073-2.958-4.431-4.591-7.206a1.384 1.384 0 012.385-1.405c1.594 2.712 3.056 5.007 4.47 7.021a1.384 1.384 0 01-1.132 2.179zm47.733-.549a1.383 1.383 0 01-1.043-2.294c1.656-1.9 3.406-4 5.348-6.446a1.385 1.385 0 112.168 1.725 186.192 186.192 0 01-5.429 6.543 1.387 1.387 0 01-1.043.472zm10.574-13.158a1.383 1.383 0 01-1.1-2.227l1.642-2.141a661.902 661.902 0 013.5-4.555 1.384 1.384 0 012.191 1.691c-1.152 1.488-2.315 3.01-3.491 4.546l-1.644 2.146a1.386 1.386 0 01-1.097.539zm-66.977-.759a1.381 1.381 0 01-1.215-.721l-1.368-2.509q-1.327-2.442-2.674-4.889a1.385 1.385 0 012.423-1.341c.906 1.633 1.795 3.273 2.683 4.9l1.364 2.509a1.377 1.377 0 01-.551 1.875 1.354 1.354 0 01-.661.175zm-110.21-.081a1.383 1.383 0 01-1.057-2.277 190.21 190.21 0 015.617-6.375 1.385 1.385 0 012.037 1.877 187.296 187.296 0 00-5.538 6.283 1.377 1.377 0 01-1.058.491zm11.434-12.4a1.384 1.384 0 01-.973-2.367 165.497 165.497 0 016.2-5.824 1.384 1.384 0 011.838 2.069 158.341 158.341 0 00-6.095 5.721 1.382 1.382 0 01-.97.401zm176.157-.05a1.386 1.386 0 01-1.062-2.272c2.118-2.539 3.993-4.618 5.737-6.358a1.386 1.386 0 011.958 1.963c-1.685 1.678-3.507 3.7-5.571 6.168a1.381 1.381 0 01-1.062.499zm-85.632-2.191a1.38 1.38 0 01-1.185-.668c-1.585-2.611-3.078-4.889-4.567-6.956a1.383 1.383 0 012.245-1.617c1.533 2.129 3.069 4.463 4.691 7.141a1.383 1.383 0 01-1.184 2.1zm-77.906-8.948a1.385 1.385 0 01-.856-2.475c2.308-1.811 4.63-3.5 6.9-5.023a1.385 1.385 0 011.543 2.3 115.324 115.324 0 00-6.73 4.9 1.384 1.384 0 01-.857.297zm67.96-4.632a1.379 1.379 0 01-1.012-.441 43.748 43.748 0 00-6.064-5.441 1.384 1.384 0 111.635-2.233 46.15 46.15 0 016.454 5.788 1.386 1.386 0 01-1.012 2.328zm-53.948-4.729a1.384 1.384 0 01-.668-2.6 75.285 75.285 0 017.746-3.7 1.384 1.384 0 011.046 2.563 73.3 73.3 0 00-7.46 3.568 1.371 1.371 0 01-.664.168zm40.4-5.023a1.356 1.356 0 01-.531-.106 32.078 32.078 0 00-7.272-2.048l-.479-.077a1.383 1.383 0 11.407-2.735l.513.077a35.037 35.037 0 017.893 2.225 1.385 1.385 0 01-.531 2.663zm-24.8-1.238a1.384 1.384 0 01-.33-2.728 48.528 48.528 0 018.56-1.341 1.37 1.37 0 011.468 1.3 1.386 1.386 0 01-1.3 1.468 45.677 45.677 0 00-8.067 1.265 1.439 1.439 0 01-.333.034z" fill="#f05260"/></g></g></g><g data-name="Group 3876"><path data-name="Path 8929" d="M1089.681 176.72l-47.065 29.07 2.149-16.986z" fill="#29286a"/><path data-name="Path 8930" d="M1089.681 176.72l-47.065 29.07 5.912-12.1z" fill="#f05260"/><g data-name="Group 3875"><path data-name="Path 8931" d="M1062.14 211.5l-29.3-35.876 63.446-6.691z" fill="#fff"/><path data-name="Path 8932" d="M1094.299 170.03l-49.76 19.915 3.6 4.41z" fill="#2d3192"/></g></g></g></g></g></svg>