<svg xmlns="http://www.w3.org/2000/svg" width="500" height="443.554"><g data-name="Group 3788" transform="translate(-305.404 -125.477)"><ellipse data-name="Ellipse 2" cx="250" cy="32.737" rx="250" ry="32.737" transform="translate(305.404 503.558)" fill="#e2e5e0"/><g data-name="Group 3729" transform="translate(368.012 125.478)"><g data-name="Group 3720"><path data-name="Path 8571" d="M302.365 166.103v-.2c0-2.62-.129-5.208-.317-7.782-.019-.264-.038-.53-.06-.795a105.377 105.377 0 00-210.059 0c-.022.268-.041.537-.061.806-.188 2.571-.317 5.157-.317 7.775v.194c0 2.622.129 5.213.317 7.787.021.263.038.526.061.787a105.376 105.376 0 00210.059 0c.022-.266.041-.53.06-.8.188-2.562.317-5.152.317-7.772z" fill="#82cec2"/><g data-name="Group 3719"><g data-name="Group 3718" fill="#fbd804"><path data-name="Path 8572" d="M105.581 131.559c6.7.186 2.891 3.408 3.157 8.71.339 6.785 5.826 5.649 9.5 10.1 1.174 1.424 1.206 3.185 2.255 4.69 1.531 2.193 3.9 3 6.119 4.329 3.728 2.228 6.632 6.944 10.563 8.387 10.02 3.677-.53-12.065 0-15.261.36-2.171 2-2.2 1.118-4.31-.809-1.945-2.76-2.383-4.385-2.271-1.164.08-2.593 2.566-4.039 1.5-1.934-1.432 1.217-3.251 1.515-4.275 1.128-3.9-4.533-6.626-6.6-3.351-.9 1.43.586 5.337-2.1 4.466-1.79-.58-3.182-6.7-3.009-8.338.739-6.936 5.82-8.237 11.964-8.288 4.283-.037 6.482.691 7.4 5.32.879 4.436-1.092 5.9 2.8 8.381 4.335 2.763 7.277.827 5.124-4.42-1.08-2.631-4.375-6.13-3.126-9.29.475-1.2 2.348-2.047 3.126-3.037 1.459-1.855.04-1.629 2.27-3.087 2.133-1.392 4.267-1 5.127-4.327.741-2.872-.358-2.988 1.806-5.143 4.348-4.329 7.638 1.053 11.638-1.083a18.076 18.076 0 01-2.1-4.526c.956-1.179 10.8-.412 5.09-5.13 3.534-2.1 2.875 3.889 5.809 3.281 3.956-.822-2.735-4.4-2.873-5.068-.583-2.776 3.806-2.8 5.407-1.739 2.3 1.529 1.381 6.059 5.055 5.393.414 3.238 4.463 2.115 4.466-.414 0-2.364-2.824-1.846-2.862-4.692-.041-3.044 2.376-2.891.628-5.7-1.161-1.865-3.781-.75-3.316-3.988-1.443-.108-2.738 2.407-3.23 1.031-1.276-3.569-2.833-10.977-7.661-5.738-1.994-1.591-2.8-4.4-5.474-4.364-3.523.053-3.093 4.133-5.108 6.512-.909 1.073-2.488 1.7-3.391 2.849-1 1.268.3 2.851-2.082 3.283-3.969.72-2.77-4.573-2.246-6.45-5.934-.655-3.857-5.715.787-5.84 1.741-.046 4.3 1.295 6.211-.064 1.734-1.234 1.142-3.853 3.587-3.842.565 6.364 5.095.823 8.024.352-.256.726.01 2.055-.253 2.786 9.441 1.449.1-11.574 6.509-13.944 4.176-1.543 4.924 2.176 4.762 5.428-.183 3.711.011 5.315 2.244 7.849 2.373 2.692 4.663 5.622 6.947.722.424-.913.174-3.654.7-4.256.911-1.051 3.746-.814 5.052-1.779 4.506-3.327 1.776-9.008-2.206-12.388a105.138 105.138 0 00-36.337 6.684 5.509 5.509 0 00-1.287 2.3 5.159 5.159 0 01-3.5-.365 105.794 105.794 0 00-49.368 43.891 13.163 13.163 0 00.108 1.655 4.288 4.288 0 00.295.825 20.442 20.442 0 011.453 6.629c-.149 3.347-2.637 6.243-2.063 9.415z"/><path data-name="Path 8573" d="M302.364 165.91c0-2.62-.129-5.208-.317-7.782-.019-.264-.038-.53-.061-.795a104.851 104.851 0 00-8.42-33.575l-.01-.021q-.941-2.153-1.977-4.254c-.057-.115-.115-.229-.172-.346q-.96-1.935-2-3.822l-.311-.562q-.987-1.77-2.037-3.5c-.142-.233-.284-.468-.428-.7q-1.02-1.648-2.1-3.255c-.174-.258-.344-.519-.519-.776a104.633 104.633 0 00-2.2-3.088c-.193-.261-.381-.524-.575-.784a107.46 107.46 0 00-2.343-2.993c-.2-.241-.384-.489-.581-.728-.143-.174-.295-.339-.44-.511-2.666-.11-4.792 1.195-6.063 4.244-.835 2-.594 8.467-3.367 9.026-2.972.6-5.412-15.9-11.327-6.772-.782 1.207-.355 2.825-.984 3.977-.886 1.62-1.578 1.582-2.789 2.219 1.843-3.6-3.2-11.907 1.986-11.662 1.179-2.542-.674-5.229.064-7.882 1.432-5.16 2.532-.534 3.668 1.785.663 1.352 3.432 6.522 5.844 4.735 1.76-1.306-.425-6.876-.336-8.628 2.15.37 2.741 3.373 5.033 3.91a9.918 9.918 0 004.01.258l-.271-.287a106.1 106.1 0 00-5.323-5.241l-.027-.024q-2.862-2.614-5.914-5.014c-.045-.035-.086-.07-.129-.105a106.895 106.895 0 00-6.108-4.442l-.538-.358a105.143 105.143 0 00-13.253-7.513c-.139-.067-.277-.137-.417-.2q-3.412-1.6-6.955-2.958c-.207-.08-.414-.154-.623-.233a104.4 104.4 0 00-14.777-4.354l-.382-.083a6.688 6.688 0 01.019 2.8c-.368 2.2-1.483 1.8 0 3.967 1.183 1.725 4.382 2.085 5.852 3.59.951.972 1.183 2.139 2.164 3.157 1.242 1.29 3.133 1.65 4.111 3.329a19.713 19.713 0 011.343 2.118c-2.236.454-5.649-3.052-6.93-1.035-1.4 2.2 2.435 4.563 2.962 6.14.647 1.938-1.25 5.176 2.171 5.428 3.181.236 2.051-3.423 1.879-5.374 3.595-.44 4.018 2.566 5.511 4.534 2 2.639 4.8 2.021 6.839 4.044 4.2 4.173-.691 3.072-2.536 3.174-1.731.1-2.559-.449-3.951 1.188-1.785 2.1-.685.952.2 2.959.76 1.72 2.591 7.129 3.724 8.143.822.737 7.086 1.749 9.059 1.583-1.706 1.526-2.561 3.254-4.311 5.351-3.434 4.117-1.683 2.919-1.077 7.568.524 4.014-2.714 5.27-3.765 8.658-1.21 3.9 1.792 8.479 2.27 11.985.448 3.29 2.08 3.756 3.408 6.313 1.029 1.981.922 4.045 2.376 6.251 2.086 3.165 7.347 8.814 11.744 8.287 3.079-.37 1.835-3.029 3.713-4.364 1.978-1.4 4.915.849 4.734-3.165 1.169.04 4.115 2.169 5.063 1.792 1.752-.7 1.05-3.883 1.14-5.4 4.635-.78 3.822 5.56 2.773 7.882-.511 1.132-2.024 2.8-2.1 3.988-.132 2.166 1.258 1.561 2.214 3.588 1.693 3.593-.115 15.4-2.117 18.571-1.87 2.966-6.6 4.16-5.891 8.557.436 2.728 3.813 3.888 4.461 6.691.793 3.424-1.022 6.783.522 10.3 1.73 3.94 3.091 7.6 4.62 11.85.193.537.421.962.634 1.429a105.1 105.1 0 0015.3-29.5c-.019-.413-.059-.825-.048-1.239v-.143c.134-3.7 1.551-5.095 2.693-8.323.049-.14.084-.29.132-.432a105.389 105.389 0 002.174-14.374c.022-.266.041-.53.061-.8.188-2.558.314-5.133.315-7.739v-.238z"/><path data-name="Path 8574" d="M216.361 188.311c-1.731-.72-4.147.648-5.836-.317-2.62-1.5-1.193-2.709-4.369-3.353-1.992-.4-3.834.57-5.766.28-2.023-.3-4.123-2.972-6.649-2.8-3.905-3.161-4.015-7.116-6.659-11.192-2.854-4.4-4.611-2.98-8.645-2.878-3.986.1-6.667-3.8-10.617-4.7a13.6 13.6 0 00-4.095-.1 13.1 13.1 0 01-4.662-.161c-1.207-.241-3.173-.033-4.278-.373a14.145 14.145 0 01-1.648.025c-.691-.169-.22-1.848-1.343-1.943-1.4-.118-8.693 3.7-9.236 4.725-1.3 2.446 1.249 3.461 1.5 5.409.291 2.249-.583 2.5-1.75 4.068-4.087 5.5-8.487 14.1-10.024 20.719-.863 3.722.239 4.647 1.749 7.71 1.774 3.595 1.511 7.517 3.187 11.115 1.97 4.23 4.6 3.619 8.134 5.992 3.168 2.126 3.391 4.88 3.845 8.4a69.753 69.753 0 01.782 8.115c.021 1.464-1.1 2.035-.506 3.5.825 2.027 3.695 2.993 5.19 4.474 1.475 1.462 2.564 3.276 4.123 4.748 3.837 3.617 8.215 6.756 9.876 12.025a10.724 10.724 0 01-.013 5.837 104.545 104.545 0 0010.282 2.306c.527.091.878-6.5 1.107-7.165.9-2.647 2.4-3.1 4.323-5.125 2.088-2.2 1.832-3.751 2.609-6.686 1.94-7.325 5.613-7.955 11.709-11.1 5.006-2.58 9.088-5.294 7.622-10.918-1.645-6.32 1.371-9.392 5.3-14.154a35.3 35.3 0 007.576-17.486c.573-4.122.059-7.798-2.818-8.997z"/></g></g></g><path data-name="Path 8575" d="M196.958 38.521l36.016 34.491-23.352-34.491z" fill="#242263"/><path data-name="Path 8576" d="M338.511 153.265l-40.9 15.065 40.9-.869z" fill="#242263"/><path data-name="Path 8577" d="M120.667 149.748l-54.88 47.14v-16.183z" fill="#242263"/><path data-name="Path 8578" d="M186.097 235.936l46.613 43.27h17.85z" fill="#242263"/><path data-name="Path 8579" d="M249.591 81.984a8.971 8.971 0 11-8.97-8.972 8.971 8.971 0 018.97 8.972z" fill="#f05260"/><circle data-name="Ellipse 3" cx="8.971" cy="8.971" r="8.971" transform="translate(120.665 135.324)" fill="#f05260"/><circle data-name="Ellipse 4" cx="8.971" cy="8.971" r="8.971" transform="translate(170.267 215.371)" fill="#f05260"/><path data-name="Path 8580" d="M296.385 172.437a8.971 8.971 0 11-8.97-8.97 8.971 8.971 0 018.97 8.97z" fill="#f05260"/><path data-name="Rectangle 3478" fill="#82cec2" d="M165.562 0h69.127v38.521h-69.127z"/><g data-name="Group 3721" fill="#fff"><path data-name="Path 8581" d="M181.648 25.932v3.083h-2.681v-3.1a10.4 10.4 0 01-5.079-2.156l1.43-2.884a9.033 9.033 0 005.121 2.139c1.089 0 1.774-.4 1.774-1.15 0-2.4-7.439-.948-7.439-5.949 0-2.239 1.612-3.789 4.194-4.214V8.737h2.681v2.935a10.448 10.448 0 014.416 1.513l-1.392 2.923a11.016 11.016 0 00-4.555-1.511c-.887 0-1.472.32-1.472.968 0 2.338 7.439 1.01 7.439 6.089 0 2.485-1.896 3.936-4.437 4.278z"/><path data-name="Path 8582" d="M194.844 11.759v14.132h-3.69V14.78h-2.72v-3.021z"/><path data-name="Path 8583" d="M210.762 18.814c0 4.617-1.975 7.177-5.525 7.177-3.588 0-5.543-2.559-5.543-7.177s1.954-7.157 5.543-7.157c3.55.003 5.525 2.539 5.525 7.157zm-7.54 0c0 3.228.585 4.581 2.015 4.581 1.413 0 2-1.352 2-4.581 0-3.244-.586-4.576-2-4.576-1.431 0-2.015 1.331-2.015 4.576z"/><path data-name="Path 8584" d="M223.191 18.814c0 4.617-1.975 7.177-5.525 7.177-3.588 0-5.543-2.559-5.543-7.177s1.954-7.157 5.543-7.157c3.55.003 5.525 2.539 5.525 7.157zm-7.54 0c0 3.228.585 4.581 2.015 4.581 1.413 0 2-1.352 2-4.581 0-3.244-.586-4.576-2-4.576-1.431 0-2.015 1.331-2.015 4.576z"/></g><path data-name="Rectangle 3479" fill="#f05260" d="M337.5 138.842h69.127v38.521H337.5z"/><g data-name="Group 3722" fill="#fff"><path data-name="Path 8585" d="M358.862 166.045v3.085h-2.682v-3.106a10.424 10.424 0 01-5.079-2.155l1.432-2.886a9.028 9.028 0 005.119 2.139c1.091 0 1.776-.4 1.776-1.15 0-2.4-7.44-.948-7.44-5.949 0-2.239 1.612-3.789 4.192-4.214v-2.964h2.682v2.945a10.389 10.389 0 014.415 1.513l-1.39 2.923a11.006 11.006 0 00-4.555-1.513c-.887 0-1.472.322-1.472.968 0 2.338 7.438 1.01 7.438 6.089 0 2.482-1.894 3.935-4.436 4.275z"/><path data-name="Path 8586" d="M370.022 156.972c3.327 0 5.485 1.752 5.485 4.275 0 2.985-2.277 4.918-5.767 4.918a10.423 10.423 0 01-5.6-1.773l1.472-2.865a5.12 5.12 0 003.69 1.777c1.432 0 2.238-.647 2.238-1.8 0-1.069-.806-1.674-2.219-1.674-.745 0-3.064.021-3.951.081v-8.062h9.5v2.983h-6.11v2.156c.296-.016.981-.016 1.262-.016z"/><path data-name="Path 8587" d="M387.976 158.926c0 4.617-1.975 7.178-5.525 7.178-3.588 0-5.542-2.561-5.542-7.178s1.954-7.156 5.542-7.156c3.551 0 5.525 2.539 5.525 7.156zm-7.54 0c0 3.228.585 4.581 2.015 4.581 1.413 0 2-1.352 2-4.581 0-3.244-.585-4.576-2-4.576-1.43 0-2.014 1.332-2.014 4.576z"/></g><path data-name="Rectangle 3480" fill="#f8931d" d="M215.997 279.206h69.127v38.521h-69.127z"/><g data-name="Group 3723" fill="#fff"><path data-name="Path 8588" d="M233.137 305.223v3.081h-2.682v-3.1a10.418 10.418 0 01-5.079-2.156l1.43-2.886a9.024 9.024 0 005.12 2.141c1.091 0 1.774-.4 1.774-1.15 0-2.4-7.439-.949-7.439-5.949 0-2.239 1.612-3.789 4.194-4.214v-2.966h2.682v2.943a10.44 10.44 0 014.415 1.513l-1.392 2.923a11.021 11.021 0 00-4.555-1.513c-.887 0-1.472.322-1.472.97 0 2.336 7.439 1.01 7.439 6.089.001 2.481-1.895 3.932-4.435 4.274z"/><path data-name="Path 8589" d="M245.485 295.141c0-.763-.583-1.209-1.612-1.209a6.669 6.669 0 00-3.912 1.793l-1.389-2.72a9.915 9.915 0 015.845-2.136c2.864 0 4.939 1.492 4.939 3.727 0 1.534-1.169 3.125-2.741 4.721l-2.9 2.9h6.047v2.964h-10.767l-.021-2.44 5.141-5.281a4.217 4.217 0 001.37-2.319z"/><path data-name="Path 8590" d="M262.249 298.104c0 4.617-1.975 7.177-5.523 7.177-3.588 0-5.544-2.559-5.544-7.177s1.956-7.157 5.544-7.157c3.549 0 5.523 2.545 5.523 7.157zm-7.54 0c0 3.228.585 4.581 2.016 4.581 1.411 0 2-1.352 2-4.581 0-3.244-.586-4.576-2-4.576-1.431.001-2.015 1.332-2.015 4.576z"/><path data-name="Path 8591" d="M274.679 298.104c0 4.617-1.975 7.177-5.523 7.177-3.588 0-5.543-2.559-5.543-7.177s1.954-7.157 5.543-7.157c3.548 0 5.523 2.545 5.523 7.157zm-7.54 0c0 3.228.586 4.581 2.016 4.581 1.411 0 2-1.352 2-4.581 0-3.244-.586-4.576-2-4.576-1.43.001-2.016 1.332-2.016 4.576z"/></g><path data-name="Rectangle 3481" fill="#2d3192" d="M0 170.782h69.127v38.521H0z"/><g data-name="Group 3724" fill="#fff"><path data-name="Path 8592" d="M17.141 196.8v3.083H14.46v-3.1a10.411 10.411 0 01-5.079-2.156l1.43-2.886a9.024 9.024 0 005.12 2.141c1.089 0 1.774-.4 1.774-1.15 0-2.4-7.439-.949-7.439-5.949 0-2.239 1.612-3.789 4.194-4.214v-2.964h2.681v2.943a10.447 10.447 0 014.416 1.513l-1.392 2.924a11 11 0 00-4.555-1.513c-.887 0-1.472.32-1.472.968 0 2.336 7.439 1.01 7.439 6.089 0 2.478-1.895 3.928-4.436 4.271z"/><path data-name="Path 8593" d="M33.584 192.303c0 2.722-2.238 4.617-5.746 4.617a9.621 9.621 0 01-5.563-1.729l1.492-2.845a5.276 5.276 0 003.791 1.752c1.553 0 2.418-.643 2.418-1.752 0-1.129-.865-1.715-2.438-1.715H25.16v-1.975l3.305-3.165H23.02l-.019-2.84h9.874v2.136l-3.811 3.55.7.1c2.248.336 3.82 1.709 3.82 3.866z"/><path data-name="Path 8594" d="M40.731 187.726c3.326 0 5.484 1.752 5.484 4.275 0 2.985-2.278 4.918-5.767 4.918a10.427 10.427 0 01-5.6-1.773l1.472-2.865a5.128 5.128 0 003.69 1.777c1.432 0 2.239-.648 2.239-1.8 0-1.067-.808-1.674-2.219-1.674-.747 0-3.066.021-3.951.083v-8.064h9.5v2.985h-6.11v2.156c.294-.018.983-.018 1.262-.018z"/><path data-name="Path 8595" d="M58.684 189.682c0 4.617-1.975 7.177-5.523 7.177-3.59 0-5.543-2.559-5.543-7.177s1.953-7.158 5.543-7.158c3.545 0 5.523 2.54 5.523 7.158zm-7.54 0c0 3.228.586 4.581 2.016 4.581 1.411 0 2-1.352 2-4.581 0-3.244-.586-4.576-2-4.576-1.43 0-2.016 1.331-2.016 4.576z"/></g><g data-name="Group 3726"><g data-name="Group 3725" fill="#242263"><path data-name="Path 8596" d="M103.534 138.725a1.36 1.36 0 00-1.8 2.039q4.967 4.384 10.378 8.862a1.362 1.362 0 001.734-2.1q-5.373-4.441-10.312-8.801z"/><path data-name="Path 8597" d="M132.247 77.084a1.361 1.361 0 00.463-2.641 317.967 317.967 0 00-12.941-4.381 1.362 1.362 0 10-.814 2.6 313.945 313.945 0 0112.827 4.343 1.349 1.349 0 00.465.079z"/><path data-name="Path 8598" d="M83.965 119.998a1.36 1.36 0 10-1.972 1.873 279.893 279.893 0 009.672 9.666 1.361 1.361 0 001.876-1.973 280.578 280.578 0 01-9.576-9.566z"/><path data-name="Path 8599" d="M146.215 172.205a1.361 1.361 0 00-1.57 2.223q5.485 3.87 11.219 7.744a1.338 1.338 0 00.758.236 1.361 1.361 0 00.763-2.488q-5.706-3.854-11.17-7.715z"/><path data-name="Path 8600" d="M124.42 156.028a1.36 1.36 0 10-1.672 2.144q5.263 4.109 10.853 8.258a1.36 1.36 0 001.62-2.184q-5.558-4.126-10.801-8.218z"/><path data-name="Path 8601" d="M92.749 66.196c4.1.667 8.54 1.6 13.2 2.77a1.336 1.336 0 00.333.043 1.361 1.361 0 00.331-2.68c-4.73-1.191-9.247-2.137-13.425-2.816a1.36 1.36 0 10-.435 2.684z"/><path data-name="Path 8602" d="M350.524 230.636a1.362 1.362 0 001.215.747 1.4 1.4 0 00.613-.147 1.365 1.365 0 00.6-1.83 87.883 87.883 0 00-7.295-11.709 1.359 1.359 0 10-2.2 1.593 85.165 85.165 0 017.067 11.346z"/><path data-name="Path 8603" d="M58.194 77.854a13.606 13.606 0 01.269-2.754 1.36 1.36 0 10-2.663-.551 16.37 16.37 0 00-.325 3.3 28.81 28.81 0 002.438 10.714 1.362 1.362 0 001.258.847 1.325 1.325 0 00.514-.1 1.357 1.357 0 00.744-1.773 26.17 26.17 0 01-2.235-9.683z"/><path data-name="Path 8604" d="M79.455 62.201l-.819-.006a38.489 38.489 0 00-13.063 1.926 1.363 1.363 0 00.468 2.641 1.341 1.341 0 00.468-.084 35.757 35.757 0 0112.127-1.76l.785.008h.016a1.362 1.362 0 00.018-2.723z"/><path data-name="Path 8605" d="M66.852 99.186a1.36 1.36 0 00-2.26 1.515 134.109 134.109 0 008.279 10.962 1.36 1.36 0 102.091-1.739 130.358 130.358 0 01-8.11-10.738z"/><path data-name="Path 8606" d="M302.748 251.786a258.32 258.32 0 01-12.952-3.905 1.36 1.36 0 00-.85 2.583 258.79 258.79 0 0013.092 3.945 1.312 1.312 0 00.357.049 1.36 1.36 0 00.354-2.672z"/><path data-name="Path 8607" d="M180.196 194.642q-5.834-3.6-11.48-7.248a1.36 1.36 0 00-1.475 2.286q5.664 3.66 11.526 7.28a1.361 1.361 0 001.429-2.317z"/><path data-name="Path 8608" d="M329.197 256.681a110.848 110.848 0 01-13.3-1.814 1.359 1.359 0 10-.514 2.669 113.4 113.4 0 0013.633 1.86h.094a1.361 1.361 0 00.091-2.719z"/><path data-name="Path 8609" d="M357.097 242.837a1.4 1.4 0 00-1.432-1.285 1.361 1.361 0 00-1.285 1.432c.018.315.027.624.027.93a11.542 11.542 0 01-1.566 6.089c-1.849 3.042-5.366 5.1-10.454 6.113a1.362 1.362 0 00.264 2.7 1.413 1.413 0 00.268-.027c5.864-1.172 9.986-3.649 12.246-7.368a14.241 14.241 0 001.961-7.5c0-.359-.01-.722-.029-1.084z"/><path data-name="Path 8610" d="M327.768 196.967a1.359 1.359 0 10-1.938 1.9c3.306 3.367 6.4 6.7 9.2 9.908a1.361 1.361 0 002.053-1.787 230.955 230.955 0 00-9.315-10.021z"/><path data-name="Path 8611" d="M317.039 189.799a1.362 1.362 0 00.927-2.359 378.976 378.976 0 00-10.169-9.11 1.36 1.36 0 10-1.779 2.058 386.07 386.07 0 0110.1 9.045 1.355 1.355 0 00.921.366z"/><path data-name="Path 8612" d="M203.57 208.447q-5.843-3.292-11.752-6.786a1.362 1.362 0 00-1.386 2.344q5.93 3.5 11.8 6.814a1.361 1.361 0 101.335-2.372z"/><path data-name="Path 8613" d="M277.022 243.372a408.098 408.098 0 01-12.609-4.98 1.358 1.358 0 10-1.038 2.51 409.032 409.032 0 0012.692 5.014 1.359 1.359 0 10.956-2.544z"/><path data-name="Path 8614" d="M227.491 221.288q-5.958-3.032-12.026-6.291a1.362 1.362 0 00-1.289 2.4q6.094 3.273 12.079 6.318a1.36 1.36 0 001.236-2.424z"/><path data-name="Path 8615" d="M251.959 233.015q-6.059-2.714-12.307-5.707a1.359 1.359 0 10-1.175 2.45q6.276 3.01 12.37 5.742a1.376 1.376 0 00.556.119 1.362 1.362 0 00.556-2.6z"/></g></g><g data-name="Group 3728"><g data-name="Group 3727" fill="#242263"><path data-name="Path 8616" d="M116.394 262.223a266.025 266.025 0 01-12.595 3.711 1.32 1.32 0 00.28 2.594 1.266 1.266 0 00.4-.043 270.74 270.74 0 0012.722-3.749 1.32 1.32 0 00-.806-2.513z"/><path data-name="Path 8617" d="M91.033 268.908a124.093 124.093 0 01-12.915 1.878 1.32 1.32 0 00.053 2.633 1.569 1.569 0 00.174 0 126.765 126.765 0 0013.2-1.916 1.32 1.32 0 00-.506-2.59z"/><path data-name="Path 8618" d="M165.248 242.754q-6.085 2.831-12 5.41a1.321 1.321 0 001.056 2.421q5.939-2.592 12.06-5.441a1.32 1.32 0 00-1.115-2.391z"/><path data-name="Path 8619" d="M141.11 253.247q-6.278 2.523-12.281 4.711a1.32 1.32 0 00.392 2.558 1.277 1.277 0 00.513-.08q6.035-2.2 12.359-4.74a1.32 1.32 0 10-.983-2.45z"/><path data-name="Path 8620" d="M281.674 95.048a1.362 1.362 0 00.421-.048 212.555 212.555 0 0112.716-3.219 1.32 1.32 0 00-.565-2.579c-4.058.887-8.39 1.983-12.872 3.255a1.321 1.321 0 00.3 2.59z"/><path data-name="Path 8621" d="M188.85 231.073q-5.918 3.091-11.735 5.971a1.32 1.32 0 00.527 2.5 1.345 1.345 0 00.643-.135q5.836-2.891 11.787-6a1.32 1.32 0 00-1.223-2.338z"/><path data-name="Path 8622" d="M88.793 202.62a1.323 1.323 0 00-1.865-.1 294.93 294.93 0 00-9.661 9.075 1.32 1.32 0 00-.018 1.867 1.34 1.34 0 00.882.395 1.321 1.321 0 00.984-.379 303.033 303.033 0 019.578-9 1.32 1.32 0 00.1-1.858z"/><path data-name="Path 8623" d="M53.997 242.056a1.321 1.321 0 00-1.789.529 38.094 38.094 0 00-4.606 12.786 1.316 1.316 0 001.136 1.478.925.925 0 00.115.013 1.321 1.321 0 001.367-1.148 35.524 35.524 0 014.31-11.87 1.316 1.316 0 00-.533-1.788z"/><path data-name="Path 8624" d="M65.217 270.756c-5.076-.612-8.937-2.035-11.477-4.237a1.319 1.319 0 10-1.728 1.992c2.945 2.555 7.282 4.19 12.89 4.861.033 0 .067.01.1.011a1.319 1.319 0 00.215-2.628z"/><path data-name="Path 8625" d="M68.071 221.164c-3.176 3.517-6.041 6.958-8.518 10.23a1.319 1.319 0 102.1 1.591c2.43-3.209 5.248-6.591 8.371-10.05a1.32 1.32 0 10-1.957-1.771z"/><path data-name="Path 8626" d="M256.439 190.226q-5.325 3.7-10.9 7.392a1.32 1.32 0 101.456 2.2q5.6-3.705 10.95-7.422a1.32 1.32 0 00-1.506-2.17z"/><path data-name="Path 8627" d="M320.742 86.224a83.041 83.041 0 00-13.382.688 1.322 1.322 0 00.1 2.631 1.337 1.337 0 00.224-.01 79.89 79.89 0 0112.949-.67 1.324 1.324 0 001.371-1.266 1.352 1.352 0 00-1.262-1.373z"/><path data-name="Path 8628" d="M316.967 139.8a243.26 243.26 0 01-9.25 9.309 1.32 1.32 0 101.824 1.908 242.78 242.78 0 009.351-9.41 1.32 1.32 0 10-1.924-1.808z"/><path data-name="Path 8629" d="M334.982 118.923a1.325 1.325 0 00-1.816.432 105.539 105.539 0 01-7.581 10.59 1.32 1.32 0 102.058 1.653 108.215 108.215 0 007.771-10.859 1.319 1.319 0 00-.432-1.816z"/><path data-name="Path 8630" d="M340.338 94.682a14.46 14.46 0 00-6.256-5.587 1.32 1.32 0 00-1.171 2.367 11.033 11.033 0 016.615 11.164 22.1 22.1 0 01-.913 5.144 1.32 1.32 0 102.534.739 24.725 24.725 0 001.014-5.766 14.4 14.4 0 00-1.823-8.061z"/><path data-name="Path 8631" d="M234.482 204.776q-5.507 3.478-11.208 6.92a1.321 1.321 0 00.624 2.45 1.336 1.336 0 00.741-.188q5.719-3.459 11.252-6.95a1.32 1.32 0 00-1.41-2.231z"/><path data-name="Path 8632" d="M298.023 157.991a380.687 380.687 0 01-10.028 8.508 1.32 1.32 0 101.672 2.042 381 381 0 0010.1-8.569 1.319 1.319 0 10-1.742-1.981z"/><path data-name="Path 8633" d="M211.931 218.387q-5.762 3.321-11.475 6.46a1.32 1.32 0 101.269 2.314q5.734-3.151 11.525-6.489a1.32 1.32 0 10-1.319-2.286z"/><path data-name="Path 8634" d="M277.695 174.691q-5.1 3.935-10.529 7.908a1.319 1.319 0 101.559 2.128q5.449-3.987 10.582-7.944a1.32 1.32 0 00-1.612-2.091z"/></g></g></g><g data-name="Group 3730"><path data-name="Path 8635" d="M762.271 372.191l10.768 23.9s-3.15 3.545-4.2 2.757-17.2-20.179-18.779-21.186 12.211-5.471 12.211-5.471z" fill="#2d3192"/><path data-name="Path 8636" d="M753.513 380.788c2.486-1.381 5.324-1.682 7.967-2.666 1.029-.384 1.977-.8 2.937-1.171l-2.145-4.761s-13.788 4.466-12.213 5.472a33.192 33.192 0 013.176 3.318c.098-.061.173-.133.278-.192z" fill="#068"/><path data-name="Path 8637" d="M735.57 375.168s.043 6.872 4.246 8.449c0 0 21.536-8.924 25.87-9.781s20.092-.987 20.092-.987l-15.889-28.366s-7.618 15.232-14.578 20.224-19.741 10.461-19.741 10.461z" fill="#fbd804"/><path data-name="Path 8638" d="M749.539 379.676c1.7-.677 3.48-1.376 5.23-2.051a21.929 21.929 0 01-4.533-9.72 117.779 117.779 0 01-4.963 2.676 19.752 19.752 0 004.266 9.095z" fill="#242263"/><path data-name="Path 8639" d="M791.644 351.778c4.487 10.821 2.9 21.756-3.541 24.427s-15.3-3.936-19.786-14.756-2.9-21.756 3.54-24.427 15.3 3.936 19.787 14.756z" fill="#fee08d"/><path data-name="Path 8640" d="M790.774 352.137c3.816 9.2 2.467 18.509-3.012 20.78s-13.015-3.348-16.831-12.552-2.467-18.507 3.012-20.78 13.015 3.348 16.831 12.552z" fill="#242263"/><path data-name="Path 8641" d="M760.814 388.847c-.395-.239-.284-1.723-.2-2.109.126-.6.543-1.392.124-1.969-.741-1.021-1.782 1.725-1.918 2.125a2.874 2.874 0 00-.189 1.83 7.2 7.2 0 001.588 2.4c-.076.274-.161.557-.264.86a18.27 18.27 0 012 1.013c.8.462.76 1.034 1.51 1.55l.75-1.722a35.126 35.126 0 00-3.401-3.978z" fill="#fcd4ca"/><path data-name="Path 8642" d="M767.742 381.443c-.718-.772-1.836-.476-2.7.158-.634.462-2.461 1.94-1.969 3.01.409.892 2.759-1.08 2.759-1.08-.865.745-2.478 1.341-2.072 2.085.452.833 2.5-.352 2.953-.682-.462.118-2.752 1.508-1.835 2.235.629.5 2.313-.546 2.817-.9-.675.205-1.6.806-1.417 1.742.295.513 1.316.174 1.884-.059.86-.349 1.668-.483 1.738-1.55a4.935 4.935 0 00.029-.578 5.856 5.856 0 00-.755-2.322 10.093 10.093 0 00-1.432-2.059z" fill="#fcd4ca"/><path data-name="Path 8643" d="M724.229 361.831s-8.315-4.018-14.618.534-6.044 12.948-5.869 18.2-1.575 8.054-5.253 11.732-4.026 6.654-2.1 14.358 3.445 12.025-.252 15.467c-4.057 3.776-7.978 13.425.952 20.6s21.1 5.7 29.24 5.253c4.544-.25 10.9-.529 14.481-3.738 3.639-3.265 6.409-6.7 4.651-11.9-.7-2.064-1.706-4.012-2.351-6.094a15.091 15.091 0 01-.4-5.681c.124-2.5 1.065-4.773 1.188-7.258a42.659 42.659 0 00-.476-7.549 25.772 25.772 0 00-2.074-7.409c-2.1-4.917-7.739-7.428-8.954-12.977a35.263 35.263 0 01-.937-9.811c.449-7.421-3.105-12.314-7.228-13.727z" fill="#242263"/><path data-name="Path 8644" d="M712.02 531.328s-.175 4.66.613 6.849 6.412 5.538 6.412 5.538-5.089.984-7.043-.526-6.589-9.411-6.286-10.44 1.707-4.2 1.707-4.2z" fill="#fcd4ca"/><path data-name="Path 8645" d="M742.334 530.891s-.175 4.659.613 6.847 6.412 5.538 6.412 5.538-5.089.986-7.043-.526-6.589-9.411-6.286-10.44 1.707-4.2 1.707-4.2z" fill="#fcd4ca"/><path data-name="Path 8646" d="M706.88 531.328s-4.27 1.424-3.2 5.159a32.541 32.541 0 01.89 8.538h1.244s.268-5.336 1.069-5.159 2.575 5.162 4.354 5.162h10.05s1.067-1.067 0-1.69-7.879-.355-8.653-1.868-5.754-10.142-5.754-10.142z" fill="#242263"/><path data-name="Path 8647" d="M737.434 530.771s-4.27 1.424-3.2 5.159a32.534 32.534 0 01.89 8.538h1.244s.268-5.335 1.069-5.159 2.579 5.159 4.358 5.159h10.05s1.067-1.067 0-1.69-7.879-.355-8.653-1.868-5.758-10.139-5.758-10.139z" fill="#242263"/><path data-name="Path 8648" d="M714.419 378.434s3.967 15.47 1.7 16.685c0 0 8.105 16.809 11.7 16.022s1.7-15.132 1.7-15.132a6.278 6.278 0 01-2.771-1.589c-.685-.612-2.171-1.644-2.381-2.666a55.684 55.684 0 01-.854-7.49z" fill="#fcd4ca"/><path data-name="Path 8649" d="M721.206 404.092a9.387 9.387 0 01-2.008-6.344 7.947 7.947 0 015.03-6.713 59.138 59.138 0 01-.721-6.767l-9.088-5.829s3.967 15.47 1.7 16.685c0 0 8.105 16.809 11.7 16.022.932-.205 1.489-1.333 1.813-2.876-3.438.623-6.426-1.505-8.426-4.178z" fill="#e8a393"/><path data-name="Path 8650" d="M675.531 387.522a9.408 9.408 0 01-.96-2.042c-.213-.612-.365-1.238-.577-1.849a4.8 4.8 0 01-.412-1.811 5.387 5.387 0 01.221-1.105c.123-.47.3-.925.392-1.4.086-.424.049-.836.129-1.258a7.5 7.5 0 01.733-2.322 8.694 8.694 0 011.065-1.468 5.6 5.6 0 01.632-.674 1.668 1.668 0 00.578-.712.681.681 0 00-.5-.917 2.553 2.553 0 00-2.354.771c-.626.862-.921 1.914-1.618 2.744-2.129 2.539-4.128-.449-6.614-1.523a14.973 14.973 0 01-2.4-1.548c-.444-.334-2.352-2.147-3.255-1.676-.663.349.635 1.871 1.264 2.244.247.147 2.376 1.875 2.653 1.959a13.494 13.494 0 01-3.569-2.212c-.943-.737-1.857-1.464-2.37-1.043-1.582 1.3 4.624 4.262 5.108 4.533-.518.045-5.375-3.4-5.836-2.131-.252.7.757 1.386 1.58 1.833 1.035.562 2.77.964 3.16 1.268-.731.248-3.948-1.94-3.95-.6 0 .873 2 1.527 2.749 1.757.776.236 3.05 1.782 3.771 2.126 2.4 1.144 3.391 1.011 4.339 2.45.6.917 1.679 5.759 2.55 7.6z" fill="#fcd4ca"/><path data-name="Path 8651" d="M759.476 391.33c-2.141 6.232-6.723 19.944-8.234 19.169-2.835-1.451-8.731-5.963-13.363-11.627-2.817-3.443-5.434-3.606-5.434-3.606l4.123 14.218s14.1 12.257 17.247 10.505c2.478-1.376 8.58-18.751 10.732-25.95 0-.001-5.033-2.685-5.071-2.709z" fill="#f05260"/><path data-name="Path 8652" d="M744.578 412.791c-2.528-3.281-4.088-6.039-6.659-9.292a46.593 46.593 0 01-3.48-5.17 49.77 49.77 0 01-1.685-2l3.815 13.154s13.762 11.961 17.118 10.537c-2.889-1.86-7.05-4.553-9.109-7.229z" fill="#ca0045" opacity=".32" style="mix-blend-mode:multiply;isolation:isolate"/><path data-name="Path 8653" d="M732.445 395.264l-5.7-.839s2.91 12.343.721 12.256-10.7-13.079-10.7-13.079a71.424 71.424 0 00-8.526 4.243s1.193 9.975.491 11.287c0 0 2.273 6.391 3.762 9.368s1.693 19.531 1.693 19.531a26.414 26.414 0 0011.877 3.056c6.565 0 8.543-2.755 8.543-2.755s.037-18.956.823-20.576 4.649-7.8 1.317-13.738c-1.762-3.142-4.301-8.754-4.301-8.754z" fill="#f05260"/><path data-name="Path 8654" d="M716.331 423.51c-2.321-4.245-1.951-9.223-3.133-14.161-.811-3.386-2.969-6.841-4.756-9.671.307 2.942.8 8.5.29 9.453 0 0 2.273 6.391 3.762 9.368s1.693 19.531 1.693 19.531a26.835 26.835 0 009.253 2.9 18.97 18.97 0 01-7.109-17.42z" fill="#ca0045" opacity=".32" style="mix-blend-mode:multiply;isolation:isolate"/><path data-name="Path 8655" d="M714.752 412.415s4.786 2.561 6.927 2.534c5.737-.073 6.793-3.775 6.793-3.775s3 3.563 5.665 3.341c2.606-.218 3.055-2.056 3.055-2.056s-.2 5.511-4.842 6.035a5.457 5.457 0 01-3.577-.6 4.105 4.105 0 00-3.939-.062 8.038 8.038 0 01-2.837.718c-4.138.338-6.807-2.435-7.245-6.135z" fill="#ca0045" opacity=".32" style="mix-blend-mode:multiply;isolation:isolate"/><path data-name="Path 8656" d="M710.742 397.138s-22.325 6.39-24.338 5.864-11.907-21.011-11.907-21.011l-5.6 2.276s8.317 25.618 12.17 26.905 27.668-2.042 27.668-2.042 4.195-5.602 2.007-11.992z" fill="#f05260"/><path data-name="Path 8657" d="M718.438 366.473s5.6-2.231 8.217 1.324 1.555 6.411 2.114 8.164.3 10.571-1.977 11.743c-1.969 1.016-7.1.223-10-2.61-2.465-2.418-3.13-1.416-4.875-4.042-4.396-6.612 1.888-15.173 6.521-14.579z" fill="#fcd4ca"/><path data-name="Path 8658" d="M721.194 364.473s.828 8.608 8.1 8.008c.002 0-.274-11.714-8.1-8.008z" fill="#242263"/><path data-name="Path 8659" d="M715.266 385.91a12.19 12.19 0 00.441-1.768c-.7-.809-1.535-1.967-1.991-2.035-1.261-.191-3.247-2.695-1.916-4.058 1.394-1.425 2.722-.135 3.236.962a1.21 1.21 0 00.569.464c.22-.588 1.011-5.622 3.467-6.35 8.4-2.488 2.762-9.134 2.762-9.134-13.852-2.614-14.7 16.319-11.238 20.061 1.877 2.031 3.54 2.16 4.67 1.858z" fill="#242263"/><path data-name="Path 8660" d="M712.468 378.049a1.844 1.844 0 011.693 1.306c.389 1.218-.583 2.508-1.11 1.647s-.029-1.2.027-1.7a1.524 1.524 0 00-.61-1.253z" fill="#e8a393"/><path data-name="Path 8661" d="M734.606 437.935s-11.958 4.2-20.625 0c0 0-5.249 4.405-6.081 13.4a48.971 48.971 0 00.354 10.11c.6 5 2.058 18.123 1.148 26.216-1.333 11.848-5.014 43.805-5.014 43.805l8.245 1.282s7.572-39.078 8.468-44.2 3.779-25.927 3.779-25.927 5.13 16.089 6.454 23.878c.2 1.2 3.862 45.253 3.862 45.253l7.991-.048s-.448-48.938-.448-46.363c.001 1.051-2.161-33.003-8.133-47.406z" fill="#82cec2"/><path data-name="Path 8662" d="M730.452 469.081c-1.793-5.444-2.892-8.174-6.579-13.055.374 2.233.718 4.46.976 6.713l.032-.116s4.389 13.77 6.1 22c-.196-8.878.792-11.535-.529-15.542z" fill="#00a1cc" opacity=".65" style="mix-blend-mode:multiply;isolation:isolate"/><path data-name="Path 8663" d="M779.403 358.726c-1.1-3.386-4.4-5.347-7.377-4.382a5.123 5.123 0 00-2.478 1.795 29.681 29.681 0 001.382 4.225 28.639 28.639 0 003.7 6.458 5.011 5.011 0 001.368-.221c2.979-.964 4.503-4.491 3.405-7.875z" fill="#f8931d"/></g><g data-name="Group 3787"><g data-name="Group 3760"><path data-name="Path 8664" d="M525.456 548.631a166.814 166.814 0 00-4.006-58.037h2.5c8.088 25.983 6.272 52.907 5.828 58.037z" fill="#82cec2"/><path data-name="Path 8665" d="M528.668 529.114v-4.676s16.2-7.992 23.422-19.333l2.357.662s-7.218 11.343-25.779 23.347z" fill="#82cec2"/><path data-name="Path 8666" d="M529.147 536.032v-4.706s-19.6-10.966-28.356-21.656l-1.363 1.894s9.037 12.388 29.719 24.468z" fill="#82cec2"/><path data-name="Path 8667" d="M541.11 507.018a25.142 25.142 0 01.443 10.459l-2.873 2.577s2.211-7.881.589-12.447z" fill="#82cec2"/><path data-name="Path 8668" d="M499.977 519.417c2.68.577 6.253-.2 8.852-.984l.024.025a5.72 5.72 0 001.109 1.98 25.2 25.2 0 01-10.332.881z" fill="#82cec2"/><path data-name="Path 8669" d="M505.225 530.148a25.147 25.147 0 018.892-5.523l3.657 1.234s-7.951 1.948-11.131 5.6z" fill="#82cec2"/><path data-name="Path 8670" d="M539.814 519.542a25.43 25.43 0 015.224 8.4l-1.846.573c-.8-2.875-3.5-5.944-5.465-7.879a4.665 4.665 0 002.087-1.094z" fill="#82cec2"/><path data-name="Path 8671" d="M553.682 521.443s-8.065-.2-13.047-2.475l1.621-2.265s6.468 3.308 11.289 2.811z" fill="#82cec2"/><path data-name="Path 8672" d="M513.511 512.099s3.416 7.31 3.606 12.781l-2.751-.441s.075-7.264-2.52-11.357z" fill="#82cec2"/><g data-name="Group 3735"><path data-name="Path 8673" d="M527.041 485.725a4.53 4.53 0 00-.726 1.453 7.8 7.8 0 00.046 1.451l-7.331 1.658c-.2-.693-.4-1.194-.6-1.285-.707-.333-9.054-3.316-8.745-10.717s4.748-9.785 6.879-10.561 10.336-.906 13.351 6.239c2.465 5.827-2.147 10.307-2.874 11.762z" fill="#fbd804"/><g data-name="Group 3733"><g data-name="Group 3732"><path data-name="Path 8674" d="M524.394 489.524s-1.279-5.652-1.046-6.554 1.5-4.157 1.685-4.826-.631-1.21-.938-.215a51.7 51.7 0 00-1.707 5c-.174 1.148.815 7.166.815 7.166z" fill="#242263"/><path data-name="Path 8675" d="M521.261 490.233s-1.276-5.654-1.875-6.368-3.139-3.109-3.6-3.631.048-1.363.755-.6a51.727 51.727 0 013.689 3.776c.651.962 2.348 6.818 2.348 6.818z" fill="#242263"/><g data-name="Group 3731"><path data-name="Path 8676" d="M516.147 479.457a4.315 4.315 0 002.44-.4 1.433 1.433 0 01-.538-1.03.956.956 0 01.516-.929 1.029 1.029 0 011.115.261.962.962 0 01.314 1.209 1.574 1.574 0 01-.336.438 1.943 1.943 0 001.539-.6 1.513 1.513 0 01-.463-.283 1.3 1.3 0 01-.14-1.769 1.04 1.04 0 011.5-.083c.478.363.506 1.05.083 1.785a9.153 9.153 0 002.233-.174l.118.54a9.1 9.1 0 01-2.715.143 2.377 2.377 0 01-2.661.844l-.032-.013a4.9 4.9 0 01-3.055.575zm2.652-1.862a.449.449 0 00-.215.432.97.97 0 00.5.747 1.257 1.257 0 00.42-.451c.064-.132.1-.314-.174-.558a.921.921 0 00-.233-.154.365.365 0 00-.298-.016zm2.884.2c.213-.366.362-.871.076-1.091s-.557-.215-.744.006a.745.745 0 00.089 1.018 1.1 1.1 0 00.473.233c.038-.054.072-.108.106-.163z" fill="#242263"/></g></g></g><g data-name="Group 3734"><path data-name="Path 8677" d="M522.547 488.635a11.773 11.773 0 003.937-1.628c-.014.046-.03.092-.041.139-.148.626.57 5.393.242 7.369a1.449 1.449 0 01-.282.749 5.212 5.212 0 01-4.487 1.015 1.462 1.462 0 01-.575-.556c-1.147-1.644-2.55-6.254-2.953-6.756a1.244 1.244 0 00-.1-.107 11.74 11.74 0 004.259-.225z" fill="#1e1ea4"/><path data-name="Path 8678" d="M523.027 490.753a13.509 13.509 0 01-3.77.293c-.2-.538-.385-1.026-.537-1.4a11.161 11.161 0 007.72-1.744c.024.4.067.916.115 1.489a13.475 13.475 0 01-3.528 1.362z" fill="#242263"/><path data-name="Path 8679" d="M523.566 493.144a13.989 13.989 0 01-3.364.317c-.19-.449-.373-.916-.549-1.371a11.153 11.153 0 006.992-1.582c.038.489.072.987.1 1.475a14.088 14.088 0 01-3.179 1.161z" fill="#242263"/><path data-name="Path 8680" d="M526.771 493.154a8.622 8.622 0 01-.086 1.36c-.009.061-.022.113-.033.169a13.237 13.237 0 01-5.208 1.177c-.033-.045-.068-.088-.1-.139a8.7 8.7 0 01-.664-1.19 11.163 11.163 0 006.091-1.377z" fill="#242263"/></g></g><g data-name="Group 3739"><g data-name="Group 3736" transform="translate(548.493 494.976)"><path data-name="Path 8681" d="M14.267 7.132A7.131 7.131 0 117.135 0a7.132 7.132 0 017.132 7.132z" fill="#fbd804"/><circle data-name="Ellipse 5" cx="5.821" cy="5.821" r="5.821" transform="translate(1.31 1.311)" fill="#ffb900"/></g><g data-name="Group 3738"><g data-name="Group 3737"><path data-name="Path 8682" d="M554.93 499.108c1.169-.362 2.394-.285 2.848.847l-1.887.755c-.182-.424-.656-.341-.932-.229-.174.068-.734.293-.6.639.311.776 3.464-1.421 4.342.771.527 1.315-.307 2.217-1.534 2.814l.64 1.365-1.151.46-.492-1.435c-1.222.346-2.534.233-3.007-.951l1.887-.755.016.041c.218.516.839.385 1.136.268s.838-.36.686-.737c-.322-.8-3.5 1.32-4.353-.8-.491-1.223.271-2.072 1.4-2.644l-.634-1.379 1.152-.46z" fill="#fbd804"/></g></g></g><g data-name="Group 3743"><g data-name="Group 3740"><path data-name="Path 8683" d="M545.461 508.233a7.132 7.132 0 11-3.279-9.539 7.131 7.131 0 013.279 9.539z" fill="#fbd804"/><path data-name="Path 8684" d="M544.281 507.657a5.821 5.821 0 11-2.677-7.783 5.822 5.822 0 012.677 7.783z" fill="#ffb900"/></g><g data-name="Group 3742"><g data-name="Group 3741"><path data-name="Path 8685" d="M539.744 502.106c1.209.188 2.276.795 2.187 2.012l-2.027-.15c.024-.46-.44-.594-.736-.615-.186-.014-.788-.059-.815.314-.062.831 3.736.242 3.563 2.6-.1 1.413-1.249 1.857-2.614 1.855l-.022 1.508-1.237-.092.188-1.505c-1.25-.225-2.379-.9-2.286-2.172l2.026.148v.045c-.03.559.586.715.9.737s.909.046.94-.36c.064-.865-3.728-.35-3.561-2.63.1-1.314 1.153-1.742 2.421-1.76l.035-1.516 1.238.091z" fill="#fbd804"/></g></g></g><g data-name="Group 3747"><g data-name="Group 3744"><path data-name="Path 8686" d="M518.973 508.521a7.131 7.131 0 11-5.468-8.475 7.131 7.131 0 015.468 8.475z" fill="#fbd804"/><path data-name="Path 8687" d="M517.69 508.245a5.821 5.821 0 11-4.463-6.917 5.822 5.822 0 014.463 6.917z" fill="#ffb900"/></g><g data-name="Group 3746"><g data-name="Group 3745"><path data-name="Path 8688" d="M511.955 503.942c1.218-.107 2.4.228 2.6 1.429l-2 .341c-.088-.452-.57-.471-.863-.422-.183.032-.779.134-.717.5.14.823 3.687-.658 4.082 1.669.237 1.4-.768 2.1-2.093 2.427l.338 1.468-1.223.209-.178-1.508c-1.266.083-2.524-.306-2.738-1.562l2-.339.006.043c.105.551.741.554 1.054.5s.9-.174.827-.575c-.145-.855-3.7.553-4.087-1.7-.221-1.3.7-1.969 1.929-2.289l-.33-1.481 1.223-.207z" fill="#fbd804"/></g></g></g><g data-name="Group 3751"><g data-name="Group 3748"><path data-name="Path 8689" d="M499.814 512.643a7.132 7.132 0 111.273-10.005 7.133 7.133 0 01-1.273 10.005z" fill="#fbd804"/><path data-name="Path 8690" d="M499.011 511.611a5.82 5.82 0 111.039-8.166 5.82 5.82 0 01-1.039 8.166z" fill="#ffb900"/></g><g data-name="Group 3750"><g data-name="Group 3749"><path data-name="Path 8691" d="M497.394 504.621c1 .7 1.69 1.718 1.072 2.77l-1.752-1.029c.225-.4-.132-.728-.389-.878-.161-.094-.682-.4-.87-.08-.424.72 3.244 1.87 2.048 3.905-.717 1.222-1.94 1.113-3.165.51l-.686 1.341-1.07-.627.835-1.269c-1.023-.752-1.734-1.859-1.089-2.958l1.752 1.029-.022.038c-.274.489.209.9.484 1.061s.8.444 1 .094c.44-.749-3.189-1.964-2.032-3.934.669-1.136 1.8-1.054 2.95-.508l.7-1.346 1.07.629z" fill="#fbd804"/></g></g></g><g data-name="Group 3755"><g data-name="Group 3752"><path data-name="Path 8692" d="M552.276 532.977a7.132 7.132 0 11-5.807-8.247 7.131 7.131 0 015.807 8.247z" fill="#fbd804"/><path data-name="Path 8693" d="M550.987 532.753a5.821 5.821 0 11-4.74-6.731 5.821 5.821 0 014.74 6.731z" fill="#ffb900"/></g><g data-name="Group 3754"><g data-name="Group 3753"><path data-name="Path 8694" d="M545.079 528.691c1.212-.156 2.406.129 2.66 1.322l-1.988.42c-.107-.448-.589-.448-.879-.385-.183.038-.772.164-.7.529.174.817 3.657-.808 4.146 1.5.295 1.386-.682 2.131-1.994 2.51l.4 1.454-1.214.256-.239-1.5c-1.263.134-2.536-.2-2.8-1.449l1.988-.42.009.041c.127.546.761.524 1.073.459s.887-.21.8-.608c-.18-.849-3.679.7-4.152-1.534-.274-1.288.621-2 1.833-2.364l-.389-1.467 1.214-.258z" fill="#fbd804"/></g></g></g><g data-name="Group 3759"><g data-name="Group 3756"><path data-name="Path 8695" d="M513.206 535.549a7.132 7.132 0 11-5.807-8.247 7.131 7.131 0 015.807 8.247z" fill="#fbd804"/><path data-name="Path 8696" d="M511.915 535.325a5.821 5.821 0 11-4.74-6.731 5.819 5.819 0 014.74 6.731z" fill="#ffb900"/></g><g data-name="Group 3758"><g data-name="Group 3757"><path data-name="Path 8697" d="M506.009 531.259c1.212-.156 2.407.129 2.66 1.322l-1.988.42c-.107-.449-.589-.447-.879-.385-.182.038-.772.164-.7.529.174.815 3.657-.809 4.146 1.5.295 1.387-.682 2.133-1.992 2.512l.4 1.453-1.215.258-.239-1.5c-1.263.132-2.536-.2-2.8-1.449l1.988-.422.008.043c.127.546.761.524 1.073.457s.887-.21.8-.607c-.18-.849-3.679.7-4.152-1.534-.274-1.29.621-2 1.833-2.365l-.389-1.467 1.214-.256z" fill="#fbd804"/></g></g></g><path data-name="Path 8698" d="M546.186 519.541s3.547-3.574 6.9-3.685 8.543 4.2 8.543 4.2-4.558 5.781-8.543 5.046c-4.592-.85-6.9-5.561-6.9-5.561z" fill="#82cec2"/><path data-name="Path 8699" d="M486.409 519.541s3.545-3.574 6.9-3.685 8.543 4.2 8.543 4.2-4.558 5.781-8.543 5.046c-4.594-.85-6.9-5.561-6.9-5.561z" fill="#82cec2"/></g><g data-name="Group 3782"><path data-name="Path 8700" d="M606.13 548.631a166.816 166.816 0 014.006-58.037h-2.505c-8.086 25.983-6.27 52.907-5.826 58.037z" fill="#82cec2"/><path data-name="Path 8701" d="M602.92 529.114v-4.676s-16.2-7.992-23.422-19.333l-2.357.662s7.216 11.343 25.779 23.347z" fill="#82cec2"/><path data-name="Path 8702" d="M602.435 536.032v-4.706s19.6-10.966 28.356-21.656l1.363 1.894s-9.033 12.388-29.719 24.468z" fill="#82cec2"/><path data-name="Path 8703" d="M590.471 507.018a25.141 25.141 0 00-.443 10.459l2.873 2.577s-2.211-7.881-.589-12.447z" fill="#82cec2"/><path data-name="Path 8704" d="M631.609 519.417c-2.68.577-6.253-.2-8.852-.984l-.024.025a5.748 5.748 0 01-1.109 1.98 25.194 25.194 0 0010.33.881z" fill="#82cec2"/><path data-name="Path 8705" d="M624.25 528.466a20.91 20.91 0 00-7.4-4.6l-3.042 1.027s6.613 1.621 9.26 4.662z" fill="#82cec2"/><path data-name="Path 8706" d="M596.144 521.532a25.43 25.43 0 00-8.006 5.8l1.492 1.228c1.824-2.362 5.487-4.182 8.035-5.234a4.654 4.654 0 01-1.521-1.794z" fill="#82cec2"/><path data-name="Path 8707" d="M577.904 521.443s8.065-.2 13.047-2.475l-1.621-2.265s-6.468 3.308-11.289 2.811z" fill="#82cec2"/><path data-name="Path 8708" d="M618.074 512.099s-3.416 7.31-3.606 12.781l2.751-.441s-.075-7.264 2.52-11.357z" fill="#82cec2"/><g data-name="Group 3765"><path data-name="Path 8709" d="M604.544 485.725a4.532 4.532 0 01.726 1.453 7.8 7.8 0 01-.046 1.451l7.329 1.658c.206-.693.406-1.194.6-1.285.707-.333 9.054-3.316 8.744-10.717s-4.746-9.785-6.877-10.561-10.336-.906-13.351 6.239c-2.463 5.827 2.149 10.307 2.875 11.762z" fill="#fbd804"/><g data-name="Group 3763"><g data-name="Group 3762"><path data-name="Path 8710" d="M607.191 489.524s1.279-5.652 1.046-6.554-1.5-4.157-1.685-4.826.631-1.21.938-.215a51.246 51.246 0 011.706 5c.175 1.148-.814 7.166-.814 7.166z" fill="#242263"/><path data-name="Path 8711" d="M610.323 490.233s1.276-5.654 1.875-6.368 3.138-3.109 3.6-3.631-.048-1.363-.755-.6a51.72 51.72 0 00-3.689 3.776c-.651.962-2.348 6.818-2.348 6.818z" fill="#242263"/><g data-name="Group 3761"><path data-name="Path 8712" d="M615.521 479.97a4.9 4.9 0 01-3.055-.575l-.032.013a2.377 2.377 0 01-2.661-.844 9.1 9.1 0 01-2.716-.143l.118-.54a9.152 9.152 0 002.233.174c-.424-.736-.395-1.422.083-1.785a1.04 1.04 0 011.5.083 1.3 1.3 0 01-.14 1.769 1.514 1.514 0 01-.464.283 1.943 1.943 0 001.539.6 1.544 1.544 0 01-.336-.438.961.961 0 01.312-1.209 1.032 1.032 0 011.117-.261.956.956 0 01.516.929 1.438 1.438 0 01-.538 1.03 4.316 4.316 0 002.44.4zm-3.033-2.359a.9.9 0 00-.233.154c-.276.244-.237.425-.174.558a1.257 1.257 0 00.42.451.97.97 0 00.5-.747.447.447 0 00-.217-.432.361.361 0 00-.296.016zm-2.481.352a1.1 1.1 0 00.473-.233.745.745 0 00.089-1.018c-.186-.221-.459-.223-.744-.006s-.137.725.076 1.091c.034.056.069.11.106.166z" fill="#242263"/></g></g></g><g data-name="Group 3764"><path data-name="Path 8713" d="M609.038 488.635a11.774 11.774 0 01-3.937-1.628c.014.046.03.092.041.139.148.626-.57 5.393-.242 7.369a1.449 1.449 0 00.282.749 5.21 5.21 0 004.485 1.015 1.453 1.453 0 00.577-.556c1.147-1.644 2.55-6.254 2.953-6.756.029-.037.064-.072.1-.107a11.74 11.74 0 01-4.259-.225z" fill="#1e1ea4"/><path data-name="Path 8714" d="M608.559 490.753a13.509 13.509 0 003.77.293c.2-.538.385-1.026.537-1.4a11.159 11.159 0 01-7.72-1.744c-.024.4-.067.916-.116 1.489a13.485 13.485 0 003.529 1.362z" fill="#242263"/><path data-name="Path 8715" d="M608.019 493.144a13.989 13.989 0 003.364.317c.188-.449.373-.916.549-1.371a11.153 11.153 0 01-6.992-1.582c-.038.489-.072.987-.1 1.475a14.088 14.088 0 003.179 1.161z" fill="#242263"/><path data-name="Path 8716" d="M604.819 493.154a8.622 8.622 0 00.086 1.36c.01.061.022.113.033.169a13.236 13.236 0 005.208 1.177c.033-.045.067-.088.1-.139a8.69 8.69 0 00.664-1.19 11.163 11.163 0 01-6.091-1.377z" fill="#242263"/></g></g><g data-name="Group 3769"><g data-name="Group 3766"><path data-name="Path 8717" d="M598.941 508.233a7.132 7.132 0 11-3.279-9.539 7.131 7.131 0 013.279 9.539z" fill="#fbd804"/><path data-name="Path 8718" d="M597.763 507.657a5.821 5.821 0 11-2.676-7.783 5.82 5.82 0 012.676 7.783z" fill="#ffb900"/></g><g data-name="Group 3768"><g data-name="Group 3767"><path data-name="Path 8719" d="M593.226 502.106c1.207.188 2.274.795 2.185 2.012l-2.026-.15c.022-.46-.441-.594-.737-.615-.185-.014-.788-.059-.815.314-.061.831 3.738.242 3.564 2.6-.105 1.413-1.249 1.857-2.615 1.855l-.022 1.508-1.237-.092.188-1.505c-1.25-.225-2.378-.9-2.284-2.172l2.026.148v.045c-.03.559.586.715.9.737s.911.046.94-.36c.064-.865-3.728-.35-3.561-2.63.1-1.314 1.153-1.742 2.421-1.76l.035-1.516 1.238.091z" fill="#fbd804"/></g></g></g><g data-name="Group 3773"><g data-name="Group 3770"><path data-name="Path 8720" d="M626.555 508.521a7.131 7.131 0 11-5.466-8.475 7.13 7.13 0 015.466 8.475z" fill="#fbd804"/><path data-name="Path 8721" d="M625.274 508.245a5.821 5.821 0 11-4.463-6.917 5.822 5.822 0 014.463 6.917z" fill="#ffb900"/></g><g data-name="Group 3772"><g data-name="Group 3771"><path data-name="Path 8722" d="M619.539 503.942c1.217-.107 2.4.228 2.6 1.429l-2 .341c-.088-.452-.57-.471-.863-.422-.183.032-.779.134-.717.5.14.823 3.687-.658 4.082 1.669.237 1.4-.768 2.1-2.094 2.427l.339 1.468-1.223.209-.178-1.508c-1.266.083-2.524-.306-2.738-1.562l2-.339.008.043c.105.551.741.554 1.054.5s.9-.174.827-.575c-.145-.855-3.7.553-4.087-1.7-.221-1.3.7-1.969 1.927-2.289l-.328-1.481 1.223-.207z" fill="#fbd804"/></g></g></g><g data-name="Group 3777"><g data-name="Group 3774"><path data-name="Path 8723" d="M579.644 521.189a7.132 7.132 0 11-5.807-8.247 7.132 7.132 0 015.807 8.247z" fill="#fbd804"/><path data-name="Path 8724" d="M578.353 520.965a5.821 5.821 0 11-4.74-6.731 5.822 5.822 0 014.74 6.731z" fill="#ffb900"/></g><g data-name="Group 3776"><g data-name="Group 3775"><path data-name="Path 8725" d="M572.447 516.899c1.212-.156 2.407.131 2.66 1.322l-1.988.42c-.107-.448-.589-.446-.879-.385-.183.04-.774.164-.7.529.174.817 3.657-.808 4.146 1.5.293 1.386-.682 2.131-1.994 2.51l.4 1.454-1.214.256-.239-1.5c-1.263.134-2.536-.2-2.8-1.449l1.988-.42.01.043c.126.545.761.522 1.073.457s.887-.21.8-.608c-.18-.849-3.679.7-4.154-1.534-.272-1.288.623-1.994 1.835-2.364l-.389-1.467 1.214-.258z" fill="#fbd804"/></g></g></g><g data-name="Group 3781"><g data-name="Group 3778"><path data-name="Path 8726" d="M644.749 521.73a7.131 7.131 0 11-5.807-8.247 7.132 7.132 0 015.807 8.247z" fill="#fbd804"/><path data-name="Path 8727" d="M643.457 521.506a5.821 5.821 0 11-4.74-6.731 5.821 5.821 0 014.74 6.731z" fill="#ffb900"/></g><g data-name="Group 3780"><g data-name="Group 3779"><path data-name="Path 8728" d="M637.551 517.44c1.214-.156 2.407.129 2.66 1.322l-1.988.42c-.105-.448-.589-.448-.879-.385-.182.038-.772.164-.7.529.174.817 3.657-.807 4.147 1.5.293 1.386-.683 2.131-1.994 2.51l.4 1.454-1.214.256-.241-1.5c-1.261.132-2.534-.2-2.8-1.449l1.988-.422.008.043c.127.546.763.524 1.074.457s.887-.209.8-.607c-.178-.849-3.679.7-4.152-1.534-.274-1.288.621-2 1.835-2.363l-.39-1.467 1.214-.258z" fill="#fbd804"/></g></g></g><path data-name="Path 8729" d="M591.274 525.104s-4.745-1.685-7.814-.333-5.88 7.486-5.88 7.486 6.613 3.235 9.886.846c3.77-2.754 3.808-7.999 3.808-7.999z" fill="#82cec2"/><path data-name="Path 8730" d="M580.015 508.878s.978-4.941-.808-7.779-8.261-4.729-8.261-4.729-2.238 7.013.6 9.9c3.276 3.333 8.469 2.608 8.469 2.608z" fill="#82cec2"/><path data-name="Path 8731" d="M641.119 501.638s-5.018-.4-7.634 1.7-3.749 8.75-3.749 8.75 7.224 1.416 9.77-1.736c2.932-3.636 1.613-8.714 1.613-8.714z" fill="#82cec2"/><path data-name="Path 8732" d="M633.819 532.044s-1.65-3.85-4.209-4.96-7.893.635-7.893.635 1.76 5.866 5.068 6.516c3.809.749 7.034-2.191 7.034-2.191z" fill="#82cec2"/></g><g data-name="Group 3786"><g data-name="Group 3783"><path data-name="Path 8733" d="M441.642 456.181c.366.312 1.107-.522 1.427-.682.647-.32 1.129.15 1.741.342.236.075.769.333.9.073.088-.175-.113-.444.013-.578.167-.177.624.148.8.205.44.142 1.066.207.839-.455a3.6 3.6 0 00-2.032-1.68 3.121 3.121 0 00-2.438-.162 2.8 2.8 0 00-1.394 2.567.543.543 0 00.144.37z" fill="#e8a393"/><path data-name="Path 8734" d="M438.587 454.305a3.794 3.794 0 01.5-1.889 9.235 9.235 0 011.433-2.1c.213 0 1.1 1 1.456 1.215a4.956 4.956 0 001.83.346 9.943 9.943 0 011.5.089c.874.271 1.7.508 2.577.765a16.975 16.975 0 012.574 1.338c.567.249 2.094 1.723 1.413 2.475-.58.639-1.932-.983-2.285-1.3a12.1 12.1 0 00-2.389-1.172 9.763 9.763 0 011.408.44 1.857 1.857 0 01.694.876c.253.534-.03.667-.476.683a1.976 1.976 0 01-1.376-.653 5.423 5.423 0 00-2.313-1.115 2.138 2.138 0 00-1.225-.053 3.2 3.2 0 00-1.164.484c-.682.594.661 1.284.847 1.841a1.313 1.313 0 01-.1 1.112c-.257.312-.761.027-1.005-.188a7.042 7.042 0 01-.678-.862c-.28-.341-.557-.691-.841-1.029a2.464 2.464 0 00-1.059-.858 5.614 5.614 0 01-1.373-.436c-.023-.021.074.01.052-.009z" fill="#fcd4ca"/></g><g data-name="Group 3784"><path data-name="Path 8735" d="M457.192 462.591s-10.507-11.948-16.62-5.995.446 14.1 5.093 18.943l2.524-2.228s-10.711-8.272-5.719-13.883c4.533-5.093 12.4 5.6 12.4 5.6z" fill="#f05260"/><path data-name="Path 8736" d="M454.943 460.356a24.877 24.877 0 012.249 2.234l-2.324 2.442a30.04 30.04 0 00-2.112-2.462z" fill="#ca0045" opacity=".32" style="mix-blend-mode:multiply;isolation:isolate"/><path data-name="Path 8737" d="M444.996 470.299a29.5 29.5 0 003.193 3.012l-2.524 2.228a49.303 49.303 0 01-2.744-3.106z" fill="#ca0045" opacity=".32" style="mix-blend-mode:multiply;isolation:isolate"/><path data-name="Path 8738" d="M468.499 482.83l37.613 5.689-.679 6.453-47.122-4.67z" fill="#f05260"/><path data-name="Path 8739" d="M504.348 488.253l1.76.266-.679 6.452-2.244-.221c.215-1.692 1.115-5.986 1.163-6.497z" fill="#ca0045" opacity=".32" style="mix-blend-mode:multiply;isolation:isolate"/><path data-name="Path 8740" d="M464.217 487.867c.108-.131.221-.256.331-.385 8.424 1.158 41.129 5.146 41.129 5.146l-.247 2.343-44.119-4.372a17.911 17.911 0 002.906-2.732z" fill="#ca0045" opacity=".32" style="mix-blend-mode:multiply;isolation:isolate"/><path data-name="Path 8741" d="M466.139 462.347s6.232-8.1 11.7-2.567c5.773 5.847-1.7 12.141-1.7 12.141l-1.953-2s5.34-5.114 1.57-8.363c-3.375-2.908-7.64 2.915-7.64 2.915z" fill="#f05260"/><path data-name="Path 8742" d="M468.113 464.477l-.842-.831c1.237-1.429 5.506-6.414 9.534-2.625 3.668 3.45-.605 8.475-1.962 9.789l-.659-.884s5.34-5.114 1.57-8.363c-3.375-2.909-7.641 2.914-7.641 2.914z" fill="#ca0045" opacity=".32" style="mix-blend-mode:multiply;isolation:isolate"/><path data-name="Path 8743" d="M435.068 483.442l19.544 19.095 27-26.17-20.292-19.868z" fill="#f05260"/><path data-name="Path 8744" d="M480.703 475.477l-27 26.171-4.065-3.971 27.149-26.034z" fill="#ca0045" opacity=".32" style="mix-blend-mode:multiply;isolation:isolate"/><path data-name="Path 8745" d="M457.501 460.415l1.442-1.48 20.098 19.924-1.484 1.438z" fill="#ca0045" opacity=".32" style="mix-blend-mode:multiply;isolation:isolate"/><path data-name="Path 8746" d="M505.11 488.368l4.061-1a.741.741 0 01.909.843l-1.357 8.064a.741.741 0 01-1.1.522l-3.45-1.948z" fill="#f05260"/><path data-name="Path 8747" d="M509.31 492.791l-.586 3.483a.741.741 0 01-1.1.522l-3.45-1.948.393-2.73z" fill="#ca0045" opacity=".32" style="mix-blend-mode:multiply;isolation:isolate"/></g><path data-name="Path 8748" d="M402.216 383.429c.1.185.188.373.3.556a29.33 29.33 0 003.367 4.819c.8.876 2.185 1.663 2.841 2.536a9.768 9.768 0 00.85.986c-1.148 2.566-4.1 9.33-4.6 12.131 0 0-8.435-2.749-10.7-7-.004-.001 5.947-8.677 7.942-14.028z" fill="#fcd4ca"/><path data-name="Path 8749" d="M403.239 398.934a12.837 12.837 0 00-2.3-7.449 20.44 20.44 0 00-1.677-2.04 45.065 45.065 0 002.95-6.016c.1.185.188.373.3.556a29.332 29.332 0 003.367 4.819c.8.876 2.185 1.663 2.841 2.536a9.772 9.772 0 00.85.986c-1.148 2.566-4.1 9.33-4.6 12.131a35.015 35.015 0 01-3.3-1.327 6.633 6.633 0 001.569-4.196z" fill="#e8a393"/><path data-name="Path 8750" d="M401.248 535.33s-.452 8.814.83 10.125 18.738 3.216 20.37 1.728.962-4.257-2.712-5.6c-3.939-1.435-6-.494-8.44-1.744s-1.459-5.167-1.459-5.167z" fill="#242263"/><path data-name="Path 8751" d="M358.502 534.672s-2.512 8.33-1.363 9.757 18.671 5.256 20.439 3.934 1.367-4.146-2.16-5.832c-3.783-1.809-5.923-1.072-8.233-2.55s-.954-5.291-.954-5.291z" fill="#242263"/><path data-name="Path 8752" d="M360.259 487.253a263.116 263.116 0 012.773-49.122 22.405 22.405 0 018.793 1.535c5.4 2.343 10.833 4.584 16.257 6.831-4.208 9.121-13.238 38.807-14.278 45.006-1.293 7.709-7.009 46.39-7.009 46.39l-9.956-.416c.042-6.319 3.492-48.106 3.42-50.224z" fill="#2d3192"/><path data-name="Path 8753" d="M379.399 443.018a89 89 0 008.734 3.37c-4.128 8.946-13.06 38.4-14.286 44.91-1.438-4.09-7.076-18.644-9.8-29.487a58.1 58.1 0 01-1.222-22.183l.013-.088c5.455.277 10.741.772 16.561 3.478z" fill="#29286a"/><path data-name="Path 8754" d="M372.111 441.816c3.81 1.21 10.733 2.918 15.97 4.682 3.791 9.091 14.017 35.3 15.922 44.9 2.636 13.286 7.041 45.614 7.041 45.614l-11.23 1.478s-11.281-45.857-12.893-48.789c-5.312-9.663-11.126-17.293-14.462-23.306-8.062-14.533-8.569-21.638-9.661-26.76 2.97.79 6.123 1.174 9.313 2.181z" fill="#2d3192"/><path data-name="Path 8755" d="M391.968 401.455a9.818 9.818 0 0112.213 3.566c4.423 6.493 12.686 18.536 15.476 22.025 3.883 4.853 22.046 23.568 22.046 23.568l-4.714 5.27s-23.847-18.4-26.9-22.3-21.767-22.482-21.351-28.028a5.03 5.03 0 013.23-4.101z" fill="#82cec2"/><path data-name="Path 8756" d="M391.968 401.455a9.818 9.818 0 0112.213 3.566c4.423 6.493 12.686 18.536 15.476 22.025 3.883 4.853 22.046 23.568 22.046 23.568l-4.714 5.27s-23.847-18.4-26.9-22.3-21.767-22.482-21.351-28.028a5.03 5.03 0 013.23-4.101z" fill="#00a1cc" opacity=".65" style="mix-blend-mode:multiply;isolation:isolate"/><g data-name="Group 3785"><path data-name="Path 8757" d="M391.981 453.16a77.927 77.927 0 01-17.8-3.762c-6.449-2.285-11.95-6.062-12.8-8.87 0 0 10.891-26.528 18.193-35.493s15.616-8.957 15.616-8.957 5.275 5.124 10.335 6.3c0 0-5.062 19.76-7.419 27.568s-6.125 23.214-6.125 23.214z" fill="#82cec2"/><path data-name="Path 8758" d="M390.559 422.962c.019-3.568-.594-9.207 1.008-13.3.42.355.852.7 1.244 1.085 2.325 2.29 4.625 4.737 7.624 6.137a6.7 6.7 0 001.2.389c-1.279 4.791-2.606 9.639-3.523 12.678-2.357 7.807-6.129 23.212-6.129 23.212s-2.545-.191-6.224-.825c4.198-8.509 4.751-19.495 4.8-29.376z" fill="#00a1cc" opacity=".65" style="mix-blend-mode:multiply;isolation:isolate"/></g><path data-name="Path 8759" d="M403.169 371.344s7.28-4.853 11.439-2.01 6.517 5.2 6.1 7.209-2.179 7.188-2.082 9.543 1.158 6.009.65 6.748-3.142-.462-3.466-.231-4.987 5.038-6.237 5.084-7.629-8.134-7.444-11.369-1.944-10.815 1.04-14.974z" fill="#fcd4ca"/><path data-name="Path 8760" d="M411.696 377.121c.554 1.526 2.7 4.206 8.527 4.829s10.051-11.021 0-15.944-11.647-1.247-13.864-1.524a7.783 7.783 0 00-6.141 1.4c-3.357 2.561-5.82 6.508-3.663 13.159 2.179 6.724 5.616 7.828 5.616 7.828.889-1.093 1.973-3.173 1.277-4.4a7.79 7.79 0 01-1.11-1.768 2.168 2.168 0 013.639-2.08c.979.784.392 2.966.624 4.021.247 1.121.766 1.21 1.214 1.282.866.139 2.617-1.723 2.4-4.864-.135-2.032.927-3.464 1.481-1.939z" fill="#242263"/><path data-name="Path 8761" d="M437.665 454.933a6.441 6.441 0 011.07.347 4.549 4.549 0 002.392.663c1.242.04 3.179 0 4.2.656.6.381 4.074 2.872 2.475 4.06-.215.159-.823.3-.938.189a254.444 254.444 0 00-1.274-1.174 9.339 9.339 0 01.844.86 2.3 2.3 0 01.373.607c.075.416-.538.986-.921.962s-.5-.46-.712-.731l.014.022c.18.322.7.709 0 1.373-.777.742-.817.054-1.163-.2a2.633 2.633 0 01-.347-.336c.11.143.545.623.615.768.228.468-1.011 1.209-1.688.823-.414-.237-1.193-1.3-1.467-1.332a5.646 5.646 0 01-.932-.268 5.714 5.714 0 01-2.386-1.594c-.293-.314-.892-.892-1.171-1.231a8.2 8.2 0 01-1.066-1.516 5.626 5.626 0 002.082-2.948z" fill="#fcd4ca"/><path data-name="Path 8762" d="M435.821 460.355l4.784-6.1s-16.43-16.307-22.53-24.306-11.818-23.4-17.054-25.005-11.013.647-8.881 8.5 16.553 19.78 19.326 23.478 21.442 21.261 24.355 23.433z" fill="#82cec2"/></g></g></g></svg>