<svg xmlns="http://www.w3.org/2000/svg" width="500" height="491.278"><g data-name="Group 3835" transform="translate(-30.66 -144.739)"><ellipse data-name="Ellipse 6" cx="250" cy="44.116" rx="250" ry="44.116" transform="translate(30.66 547.786)" fill="#e2e5e0"/><g data-name="Group 3793"><path data-name="Path 8763" d="M476.659 217.005a6.87 6.87 0 002.785-2.26 4.161 4.161 0 011.032-1.322 8.818 8.818 0 001.324-1.4 3.449 3.449 0 011.441-1.247c.766-.233.539.762.292 1.4-.268.7-2.22 1.978-1.968 2.727s2.534-.959 2.982-1.3c1.06-.819.937-1.816 1.439-2.919.294-.645.624-.851 1.03-.14a2.114 2.114 0 01-.154 1.717 7.227 7.227 0 01-1.92 2.966 8.455 8.455 0 002.072-2.584c.3-.557 1.147-3.154 2.064-2.765 1.843.784-1.749 5.8-2.739 6.337a9.944 9.944 0 002.254-2.463c.395-.531 1.271-1.828 1.691-.718.624 1.634-2.426 3.545-3.635 4.64a11.646 11.646 0 002.585-1.843c1.105-.876 1.362.241.387 1.332a15.87 15.87 0 01-1.595 1.4 10.765 10.765 0 01-6.542 2.335c-.981.095-2.676 1.3-3.369.8-1.334-.961-1.217-3.315-1.456-4.693z" fill="#e8a393"/><path data-name="Path 8764" d="M478.023 214.234s-21.042 5.864-23.172 5.725-7.061-18.656-9.035-27.8c-.184-.851-2.984-.9-6.152-3.572-1.308-1.1-5.181 1.007-6.479 0a8.813 8.813 0 00-1.662 9.757c4.794 10.592 8.915 30.92 19.951 31.131 14.591.28 29.391-7.34 29.391-7.34z" fill="#406"/><path data-name="Path 8765" d="M482.55 216.764a20.185 20.185 0 01-.987-1.861c-.253-.75 1.7-2.031 1.968-2.727.247-.639.474-1.634-.292-1.4a3.448 3.448 0 00-1.441 1.247 8.817 8.817 0 01-1.324 1.4 4.139 4.139 0 00-1.032 1.322 4.308 4.308 0 01-.888 1.007c.796.712 3.996 1.012 3.996 1.012z" fill="#e8a393"/><path data-name="Path 8766" d="M487.934 281.204s1.954 9.061 3.77 9.909 20.863-3.831 21.962-5.982-.454-4.4-4.523-4.239c-3.657.138-6.055 1.492-9.021 1.05-2.6-.387-5.145-5.329-5.145-5.329z" fill="#242263"/><path data-name="Path 8767" d="M455.582 301.8s-4.883 7.881-4.164 9.751 17.683 11.719 19.967 10.936 2.724-3.481-.316-6.193c-2.729-2.437-5.4-3.128-7.225-5.5-1.6-2.084-.006-7.407-.006-7.407z" fill="#242263"/><path data-name="Path 8768" d="M427.073 234.965s7.683 4 11.267 3.531 34.238 1.948 37.822 4.906-11.082 62.075-11.082 62.075l-12.154-2.023s4.356-43.218 3.627-43.529-19.075-.243-50.36-.243c-7.634 0-16.148-16.043-6.489-27.259z" fill="#82cec2"/><path data-name="Path 8769" d="M470.882 248.2a34.9 34.9 0 01-3.418-8.289c-10.614-1.3-26.616-1.743-29.122-1.415-3.584.468-11.267-3.531-11.267-3.531l-1.766-.164c2.2 3.15 4.786 5.9 8.011 6.61 3.864.855 7.928 1.072 11.745 2.084 6.6 1.747 13.142 5.21 16.091 11.79 3.543 7.908 7.336 16.2 9.783 25.033 2-8.96 4.042-18.364 5.226-25.82-2.332-1.126-4.011-4.196-5.283-6.298z" fill="#00a1cc" opacity=".65" style="mix-blend-mode:multiply;isolation:isolate"/><path data-name="Path 8770" d="M430.241 228.371s36.5 2.181 39.981 5.607 26.969 43.853 26.969 43.853l-9.678 6.981s-19.244-28.374-28.514-39.434a13.723 13.723 0 00-8.253-4.727 140.749 140.749 0 00-14.04-1.766c-7.243-.389-10.527-4-10.527-4z" fill="#82cec2"/><path data-name="Path 8771" d="M439.619 171.998a13.783 13.783 0 01-3.01-2.425c-.894 3.511-3 9.937-7.044 12.949 0 0 7.164 3.991 13.5 3.345 0 0 .253-8.459 2.009-12.412a12.281 12.281 0 01-5.455-1.457z" fill="#fcd4ca"/><path data-name="Path 8772" d="M434.741 181.759a9.2 9.2 0 019.351-5.023 17.151 17.151 0 01.983-3.282 12.281 12.281 0 01-5.455-1.457 13.783 13.783 0 01-3.01-2.425c-.894 3.511-3 9.937-7.044 12.949a31.493 31.493 0 004.3 1.887 11.385 11.385 0 01.875-2.649z" fill="#e8a393"/><path data-name="Path 8773" d="M445.763 150.213s9.371.586 11.38 3.25 2.074 8.642.45 11.5.507 7.721.176 8.854c-.266.908-3.227.5-3.444.8s-2.5 5.775-6.525 5.3c-5.66-.667-10.961-7.462-12.132-11.49s1.512-19.362 10.095-18.214z" fill="#fcd4ca"/><path data-name="Path 8774" d="M461.194 156.55a11.216 11.216 0 01-1.188-2.437 11.948 11.948 0 00-.077-1.689c-.407-1.715-.247-2.795-3.61-5.459-2.921-2.317-7.618-2.747-11.066-1.65a10.355 10.355 0 00-3.509 1.879c-.308.255-1.228.933-1.222 1.328.008.5 1.133 1.271 1.431 1.642a16.957 16.957 0 011.3 2.248c2.625 4.563 7.314 10.172 13.168 7.486a19.067 19.067 0 002.27-1.206 12.1 12.1 0 01-.977 6 5.332 5.332 0 002.737-2.033c1.645-2.582 1.395-4.646.743-6.109z" fill="#242263"/><path data-name="Path 8775" d="M443.616 149.494c-.8-.935-2.771-1.486-3.91-1.662a5.141 5.141 0 00-5.386 2.767 21.707 21.707 0 00-1.9 3.77 16.14 16.14 0 00-1.3 6.317 15.258 15.258 0 001.36 6.888c.965 1.91 3.276 4.573 4.95 4.547.649-.01 3.014-3.734 3.264-4.843.243-1.064-.249-1.267-.868-2.019-1.044-1.271-1.96-3.333-.365-4.573 2.274-1.768 4.452.278 4.16 3.821 0 0 .324 2.177 1.007 2.112s6.719-8.109-1.012-17.125z" fill="#242263"/><path data-name="Path 8776" d="M440.266 161.375a2.37 2.37 0 012.228 1.6c.551 1.545-.643 3.243-1.356 2.161s-.087-1.543-.038-2.187a1.954 1.954 0 00-.834-1.574z" fill="#e8a393"/><path data-name="Path 8777" d="M393.683 235.788s10.9 11.743 39.618 3.643a61.458 61.458 0 014.016-14.228c3.045-7.061 7.989-20.938 8.964-28.455 1.1-8.488-3.112-12.864-3.112-12.864s-5.429 4.016-12.023-2.814c0 0-14.2 1.66-22.509 16.614s-14.954 38.104-14.954 38.104z" fill="#652d90"/><path data-name="Path 8778" d="M433.141 193.248c-.1-.351-.174-.72-.257-1.085-6.88 3.353-6.012 10-4.36 20.006 1.271 7.7 4.962 19.856 5.7 22.582a58.464 58.464 0 013.1-9.548c1.405-3.26 3.213-7.975 4.851-12.842a49.806 49.806 0 01-5.68-11.859c-.889-2.508-2.645-4.662-3.354-7.254z" fill="#406"/><g data-name="Group 3792"><path data-name="Path 8779" d="M480.087 209.955l24.135-14.391s8.8 8.627 11.291 20.387l-27.4 12.836s-4.27-10.057-8.026-18.832z" fill="#ebebeb"/><path data-name="Path 8780" d="M498.749 218.972a25.119 25.119 0 01-14.4-11.557l-4.259 2.54c3.756 8.775 8.03 18.832 8.03 18.832l20-9.371a19.9 19.9 0 01-9.371-.444z" fill="#b2b2b2"/><g data-name="Group 3791"><g data-name="Group 3790"><path data-name="Path 8781" d="M484.37 211.374l10.315-1.11.316-.034.161.246 1.448 2.208-.4-.217h7.708l.082.379.623 2.88-.543-.373 5.312-.824.147.95-5.312.825-.448.069-.1-.443-.623-2.881.47.379h-7.581l-.142-.217-1.448-2.208.477.211-10.154 2.13z" fill="#f05260"/><g data-name="Group 3789"><path data-name="Path 8782" d="M508.868 215.098l-.914-1.085.037-.034 2.072.474 2.112.132-1.972.766-1.833 1.078-.043-.014z" fill="#f05260"/></g></g></g><path data-name="Path 8783" d="M505.88 201.845a.441.441 0 00-.588-.144l-1.912.984-.9-1.638a.45.45 0 00-.6-.13.422.422 0 00-.237.555l.872 1.658-2.086 1.078a.534.534 0 00-.3.649.411.411 0 00.444.227.6.6 0 00.207-.069l2.128-1.133.969 1.841a.427.427 0 00.448.217.552.552 0 00.209-.077.516.516 0 00.213-.667l-.973-1.776 1.9-1.014a.413.413 0 00.206-.561z" fill="#29286a"/></g><path data-name="Path 8784" d="M480.01 224.795a6.88 6.88 0 003.558-.442 4.144 4.144 0 011.575-.574 8.7 8.7 0 001.867-.487 3.457 3.457 0 011.883-.294c.772.209.053.932-.5 1.344-.6.45-2.931.5-3.114 1.269s2.658.531 3.221.474c1.332-.132 1.756-1.042 2.767-1.711.59-.393.979-.391.947.426-.024.61-.6 1.028-1.04 1.374a7.244 7.244 0 01-3.2 1.5 8.471 8.471 0 003.126-1.087c.547-.316 2.645-2.068 3.215-1.251 1.149 1.64-4.555 3.993-5.68 3.921a9.908 9.908 0 003.217-.894c.616-.243 2.045-.876 1.816.288-.337 1.717-3.935 1.719-5.542 2.009a11.628 11.628 0 003.17-.2c1.4-.156 1.026.928-.379 1.336a16.084 16.084 0 01-2.094.341 10.746 10.746 0 01-6.785-1.486c-.882-.44-2.96-.316-3.282-1.105-.621-1.522.727-3.456 1.254-4.751z" fill="#fcd4ca"/><path data-name="Path 8785" d="M480.579 223.853l.7 8.1s-34.812 2.8-38.8.257-5.891-6.677-7.152-10.389c-2.524-7.423-12.463-27.875-3.505-30.991 2.806-.977 6.521-.953 8.4 2.714 4.2 8.2 8.7 26.5 9.88 27.275 1.661 1.09 30.477 3.034 30.477 3.034z" fill="#652d90"/></g><g data-name="Group 3797"><g data-name="Group 3794"><path data-name="Path 8786" d="M493.488 410.087a29.446 29.446 0 11-20.2-36.417 29.446 29.446 0 0120.2 36.417z" fill="#fbd804"/><path data-name="Path 8787" d="M488.284 408.597a24.033 24.033 0 11-16.485-29.722 24.033 24.033 0 0116.485 29.722z" fill="#ffb900"/></g><g data-name="Group 3796"><g data-name="Group 3795"><path data-name="Path 8788" d="M465.836 389.297c5.046-.107 9.825 1.595 10.336 6.6l-8.346.853c-.237-1.889-2.22-2.1-3.438-1.972-.766.077-3.247.332-3.091 1.863.349 3.428 15.368-1.7 16.359 7.993.594 5.818-3.742 8.451-9.294 9.426l.993 6.144-5.1.521-.32-6.258c-5.242-.012-10.318-1.954-10.853-7.188l8.346-.851.018.18c.28 2.3 2.9 2.485 4.2 2.351 1.265-.128 3.736-.47 3.564-2.141-.363-3.562-15.412 1.255-16.371-8.127-.553-5.412 3.432-7.918 8.573-8.9l-.951-6.193 5.1-.521z" fill="#fbd804"/></g></g></g><g data-name="Group 3801"><g data-name="Group 3798"><path data-name="Path 8789" d="M263.061 250.478a29.447 29.447 0 11-20.2-36.417 29.446 29.446 0 0120.2 36.417z" fill="#fbd804"/><path data-name="Path 8790" d="M257.857 248.986a24.033 24.033 0 11-16.485-29.722 24.033 24.033 0 0116.485 29.722z" fill="#ffb900"/></g><g data-name="Group 3800"><g data-name="Group 3799"><path data-name="Path 8791" d="M235.409 229.686c5.046-.1 9.824 1.595 10.336 6.6l-8.346.851c-.237-1.889-2.218-2.1-3.438-1.972-.766.079-3.247.332-3.091 1.863.349 3.43 15.368-1.7 16.359 7.995.594 5.818-3.742 8.449-9.294 9.424l.993 6.146-5.1.521-.322-6.26c-5.242-.012-10.318-1.954-10.851-7.188l8.344-.851.018.18c.28 2.3 2.9 2.485 4.2 2.353 1.267-.13 3.738-.472 3.564-2.141-.361-3.564-15.412 1.255-16.371-8.127-.551-5.414 3.432-7.92 8.573-8.9l-.949-6.2 5.1-.521z" fill="#fbd804"/></g></g></g><g data-name="Group 3805"><g data-name="Group 3802"><path data-name="Path 8792" d="M103.43 359.149a29.446 29.446 0 11-20.2-36.417 29.445 29.445 0 0120.2 36.417z" fill="#fbd804"/><path data-name="Path 8793" d="M98.228 357.658a24.033 24.033 0 11-16.485-29.722 24.034 24.034 0 0116.485 29.722z" fill="#ffb900"/></g><g data-name="Group 3804"><g data-name="Group 3803"><path data-name="Path 8794" d="M75.778 338.359c5.048-.107 9.824 1.595 10.338 6.6l-8.348.851c-.237-1.887-2.218-2.1-3.438-1.97-.766.077-3.247.332-3.091 1.863.351 3.428 15.37-1.705 16.359 7.993.594 5.818-3.74 8.451-9.292 9.426l.991 6.144-5.1.521-.322-6.258c-5.242-.012-10.318-1.954-10.851-7.188l8.344-.853.018.182c.28 2.3 2.9 2.485 4.206 2.351 1.265-.128 3.736-.472 3.564-2.141-.363-3.564-15.414 1.255-16.373-8.127-.551-5.412 3.434-7.918 8.575-8.9l-.951-6.193 5.1-.521z" fill="#fbd804"/></g></g></g><g data-name="Group 3815"><g data-name="Group 3806"><path data-name="Path 8795" d="M309.279 562.627h-66.6l5.474-80.288h55.654z" fill="#242263"/><path data-name="Path 8796" d="M254.048 542.672c16.657-5.53 36.349-9.5 52.669-17.571l-2.913-42.76h-55.656l-4.342 63.662c3.442-1.106 6.865-2.208 10.242-3.331z" fill="#181745"/><path data-name="Path 8797" d="M318.007 549.773a4.35 4.35 0 00-3.616-1.93h-76.829a4.356 4.356 0 00-3.616 1.93l-10.061 15.013a4.353 4.353 0 003.616 6.777h96.951a4.353 4.353 0 003.616-6.777z" fill="#242263"/><path data-name="Rectangle 3482" d="M103.659 259.923h344.64a9.5 9.5 0 019.5 9.5v224.763a9.5 9.5 0 01-9.5 9.5h-344.64a9.5 9.5 0 01-9.5-9.5V269.423a9.5 9.5 0 019.5-9.5z" fill="#242263"/><path data-name="Rectangle 3483" fill="#fff" d="M110.901 276.073h330.153v208.938H110.901z"/></g><g data-name="Group 3814"><path data-name="Path 8798" d="M399.386 484.717v-162.08a12.025 12.025 0 00-12.025-12.025h-12.384c-20.521 0-17.713 46.227-17.713 46.227v127.878z" fill="#82cec2"/><path data-name="Path 8799" d="M381.239 310.612H170.412c-20.521 0-17.713 46.227-17.713 46.227v127.878h210.83V356.839s-2.809-46.227 17.71-46.227z" fill="#ebebeb"/><g data-name="Group 3808"><path data-name="Rectangle 3484" fill="#fff" d="M177.73 382.976h168.778v27.866H177.73z"/><g data-name="Group 3807"><path data-name="Rectangle 3485" fill="#82cec2" d="M182.806 386.72h28.154v20.377h-28.154z"/><path data-name="Rectangle 3486" fill="#82cec2" d="M215.424 386.72h28.154v20.377h-28.154z"/><path data-name="Rectangle 3487" fill="#82cec2" d="M248.042 386.72h28.154v20.377h-28.154z"/><path data-name="Rectangle 3488" fill="#ebebeb" d="M280.66 386.72h28.154v20.377H280.66z"/><path data-name="Rectangle 3489" fill="#ebebeb" d="M313.278 386.72h28.154v20.377h-28.154z"/></g></g><g data-name="Group 3810"><g data-name="Group 3809" fill="#f05260"><path data-name="Rectangle 3490" d="M184.092 459.445h29.162v11.881h-29.162z"/><path data-name="Rectangle 3491" d="M226.39 459.445h29.162v11.881H226.39z"/><path data-name="Rectangle 3492" d="M268.688 459.445h29.162v11.881h-29.162z"/><path data-name="Rectangle 3493" d="M310.985 459.445h29.162v11.881h-29.162z"/></g></g><g data-name="Group 3812"><path data-name="Rectangle 3494" fill="#f8931d" d="M176.29 333.365h171.658v29.666H176.29z"/><g data-name="Group 3811" fill="#fff"><path data-name="Path 8800" d="M276.322 356.863v3.564h-3.1v-3.588a12.025 12.025 0 01-5.873-2.495l1.654-3.335a10.408 10.408 0 005.921 2.471c1.259 0 2.053-.466 2.053-1.326 0-2.775-8.6-1.1-8.6-6.878 0-2.585 1.865-4.381 4.849-4.871v-3.426h3.1v3.4a12.092 12.092 0 015.106 1.749l-1.608 3.379a12.7 12.7 0 00-5.269-1.745c-1.026 0-1.7.371-1.7 1.117 0 2.7 8.6 1.164 8.6 7.04-.006 2.868-2.195 4.545-5.133 4.944z"/><path data-name="Path 8801" d="M289.229 346.374c3.845 0 6.339 2.027 6.339 4.94 0 3.45-2.633 5.688-6.665 5.688a12.02 12.02 0 01-6.481-2.052l1.7-3.308a5.941 5.941 0 004.267 2.053c1.656 0 2.585-.746 2.585-2.076 0-1.235-.93-1.934-2.562-1.934-.862 0-3.545.024-4.571.091v-9.321h10.979v3.45h-7.061v2.493c.351-.024 1.144-.024 1.47-.024z"/><path data-name="Path 8802" d="M309.707 351.665c0 3.146-2.587 5.337-6.645 5.337a11.107 11.107 0 01-6.432-2.005l1.725-3.284a6.116 6.116 0 004.381 2.025c1.8 0 2.8-.746 2.8-2.025 0-1.307-1-1.981-2.82-1.981h-2.749v-2.285l3.823-3.661h-6.294l-.024-3.284h11.423v2.468l-4.407 4.1.815.116c2.59.399 4.404 1.984 4.404 4.479z"/><path data-name="Path 8803" d="M323.715 344.696a3.886 3.886 0 01-1.958 3.353 4.553 4.553 0 012.8 4.152c0 2.937-2.585 4.8-6.6 4.8-3.987 0-6.55-1.839-6.55-4.733a4.628 4.628 0 012.984-4.22 4.126 4.126 0 01-2.169-3.472c0-2.633 2.262-4.31 5.712-4.31 3.543.001 5.781 1.726 5.781 4.43zm-8.323 7.131c0 1.33.91 2.053 2.564 2.053 1.681 0 2.613-.722 2.613-2.053 0-1.307-.932-2.029-2.589-2.029-1.678-.001-2.586.722-2.586 2.028zm.4-6.9c0 1.117.768 1.747 2.167 1.747 1.425 0 2.195-.63 2.195-1.747 0-1.164-.77-1.8-2.195-1.8-1.402.006-2.165.637-2.165 1.802z"/><path data-name="Path 8804" d="M332.356 346.374c3.847 0 6.341 2.027 6.341 4.94 0 3.45-2.637 5.688-6.669 5.688a12.025 12.025 0 01-6.481-2.052l1.705-3.308a5.927 5.927 0 004.263 2.053c1.658 0 2.589-.746 2.589-2.076 0-1.235-.932-1.934-2.566-1.934-.861 0-3.541.024-4.567.091v-9.321h10.979v3.45h-7.063v2.493c.352-.024 1.141-.024 1.469-.024z"/></g></g><path data-name="Rectangle 3495" fill="#652d90" d="M276.196 419.771h70.312v28.514h-70.312z"/><g data-name="Group 3813" fill="#fff"><path data-name="Path 8805" d="M295.254 428.804c-2.54 0-3.775 1.634-3.73 4.291a4.373 4.373 0 013.8-1.749 4.94 4.94 0 015.222 5.293c0 3.45-2.426 5.641-6.015 5.641-4.336 0-6.947-3.1-6.947-8.111 0-5.222 2.913-8.6 7.413-8.6a10.508 10.508 0 015.2 1.352l-1.561 2.937a5.772 5.772 0 00-3.382-1.054zm-3.286 7.882a2.162 2.162 0 002.4 2.238 2.118 2.118 0 002.333-2.309 2.068 2.068 0 00-2.285-2.214 2.213 2.213 0 00-2.448 2.285z"/><path data-name="Path 8806" d="M314.665 433.911c0 5.337-2.285 8.3-6.387 8.3-4.15 0-6.41-2.962-6.41-8.3s2.26-8.275 6.41-8.275c4.101 0 6.387 2.932 6.387 8.275zm-8.717 0c0 3.73.675 5.293 2.331 5.293 1.632 0 2.307-1.563 2.307-5.293 0-3.754-.675-5.293-2.307-5.293-1.657 0-2.332 1.54-2.332 5.293z"/><path data-name="Path 8807" d="M325.31 430.623c0 3.055-1.772 4.966-4.567 4.966s-4.569-1.91-4.569-4.966c0-3.031 1.772-4.94 4.569-4.94s4.567 1.908 4.567 4.94zm-6.5 0c0 1.678.724 2.7 1.936 2.7s1.934-1.026 1.934-2.7-.722-2.68-1.934-2.68-1.939 1.002-1.939 2.68zm16.341-4.871l-11.633 16.339h-3.9l11.632-16.339zm3.545 11.47c0 3.051-1.772 4.964-4.571 4.964s-4.569-1.912-4.569-4.964c0-3.031 1.772-4.946 4.569-4.946s4.568 1.915 4.568 4.946zm-6.5 0c0 1.678.724 2.7 1.934 2.7s1.934-1.024 1.934-2.7-.722-2.684-1.934-2.684-1.942 1.003-1.942 2.684z"/></g></g></g><g data-name="Group 3828"><g data-name="Group 3820"><path data-name="Path 8808" d="M387.704 491.287a16.882 16.882 0 013.841 4.693 28.636 28.636 0 011.032 5.331h28.087c.176-2.7.493-4.687 1.115-5.173 2.305-1.8 30.273-19.55 23.044-46.275s-25.366-31.757-33.776-32.825-38.422 5.216-43.521 33.742c-4.165 23.292 16.34 35.812 20.178 40.507z" fill="#fbd804"/><g data-name="Group 3818"><g data-name="Group 3817"><path data-name="Path 8809" d="M400.488 502.972s.008-21.662-1.583-24.755-8.881-13.918-10.12-16.2 1.3-4.934 3.245-1.557c1.662 2.885 8.755 12.763 10.336 16.805s2.938 26.792 2.938 26.792z" fill="#82cec2"/><path data-name="Path 8810" d="M412.494 502.972s-.006-21.662 1.583-24.755 8.881-13.918 10.121-16.2-1.3-4.934-3.245-1.557c-1.662 2.885-8.753 12.763-10.336 16.805s-2.937 26.785-2.937 26.785z" fill="#82cec2"/><g data-name="Group 3816"><path data-name="Path 8811" d="M422.979 461.28c-2.929 1.37-7.924 1.537-11.613.418l-.1.075c-3.041 2.256-7.275 1.393-10.4-.886a34.066 34.066 0 01-10.018 1.721l-.014-2.07a34.067 34.067 0 008.281-1.208c-2.151-2.333-2.609-4.855-1.172-6.574 1.808-2.175 4.1-2.033 5.546-.931a4.837 4.837 0 01.947 6.562 5.587 5.587 0 01-1.457 1.415 7.256 7.256 0 006.108.93 5.692 5.692 0 01-1.585-1.322c-.63-.789-1.453-2.453.144-4.658a3.845 3.845 0 013.852-1.875 3.58 3.58 0 012.645 2.958 5.369 5.369 0 01-1.115 4.2c3 .659 6.842.547 9.221-.558zm-13-6.1a3.384 3.384 0 00-.72.758c-.8 1.111-.515 1.747-.176 2.175a4.769 4.769 0 001.9 1.3 3.643 3.643 0 001.2-3.134 1.67 1.67 0 00-1.143-1.4 1.35 1.35 0 00-1.061.3zm-8.755 3.325a4.087 4.087 0 001.532-1.237 2.778 2.778 0 00-.511-3.779c-.864-.651-1.857-.436-2.72.592s.1 2.753 1.18 3.908c.168.176.343.348.523.513z" fill="#82cec2"/></g></g></g><g data-name="Group 3819"><path data-name="Path 8812" d="M406.492 498.201c-7.847 0-14.555-2.053-15.692-2.686.087.156.184.308.262.466 1.056 2.159 2.368 20.127 5.191 27.064a5.43 5.43 0 001.646 2.495 19.449 19.449 0 0017.186 0 5.429 5.429 0 001.644-2.5c2.822-6.937 4.137-24.9 5.192-27.064.079-.158.174-.31.263-.466-1.137.639-7.847 2.691-15.692 2.691z" fill="#1e1ea4"/><path data-name="Path 8813" d="M406.492 506.321a50.18 50.18 0 0013.981-2.037c.3-2.132.562-4.054.807-5.524a41.7 41.7 0 01-29.578 0c.245 1.47.513 3.393.809 5.524a50.179 50.179 0 0013.981 2.037z" fill="#242263"/><path data-name="Path 8814" d="M406.493 515.483a52.387 52.387 0 0012.524-1.618c.316-1.794.6-3.643.868-5.453a41.693 41.693 0 01-26.787 0c.266 1.81.553 3.659.87 5.453a52.362 52.362 0 0012.525 1.618z" fill="#242263"/><path data-name="Path 8815" d="M394.818 518.16a33.212 33.212 0 001.435 4.885c.087.209.176.395.264.584a49.264 49.264 0 0019.949 0c.089-.189.178-.375.262-.584a32.724 32.724 0 001.435-4.885 41.78 41.78 0 01-23.345 0z" fill="#242263"/></g></g><g data-name="Group 3827"><g data-name="Group 3824"><g data-name="Group 3823"><g data-name="Group 3821"><path data-name="Path 8816" d="M353.619 509.851h-17.207l-29.874 30.113h19.355z" fill="#f8931d"/></g><g data-name="Group 3822"><path data-name="Path 8817" d="M459.815 509.851h17.207l29.874 30.113h-19.358z" fill="#f8931d"/></g></g></g><g data-name="Group 3826"><path data-name="Rectangle 3496" fill="#fbd804" d="M344.221 509.851h124.992v104.2H344.221z"/><g data-name="Group 3825" fill="#fff"><path data-name="Path 8818" d="M367.959 574.014h-8.031v-25.019h8.036z"/><path data-name="Path 8819" d="M384.54 548.995c8.546 0 13.128 3.963 13.128 12.509s-4.583 12.51-13.128 12.51h-10.837v-25.019zm-2.8 6v13.02h2.654c3.527 0 5.054-2 5.054-5.419v-2.181c0-3.42-1.528-5.419-5.054-5.419z"/><path data-name="Path 8820" d="M401.988 574.014v-25.019h21.636v6h-13.6v3.456h11.638v5.745h-11.638v3.819h13.855v6z"/><path data-name="Path 8821" d="M453.511 574.014h-8.508l-1.056-3.527h-8.767l-1.054 3.527h-8.22l9.128-25.019h9.346zm-14-18.036l-2.654 8.909h5.419l-2.619-8.909z"/></g></g></g></g><g data-name="Group 3834"><path data-name="Path 8822" d="M118.849 596.377s-5.1 10.008-3.967 12.086 22.523 10.953 25.072 9.678 2.684-4.954-1.411-7.9c-4.391-3.166-7.281-2.718-9.876-5.127s0-6.939 0-6.939z" fill="#242263"/><path data-name="Path 8823" d="M190.656 600.044s-.255 10.942 1.6 12.416 25.007 1.352 26.862-.813.689-5.173-4.024-6.116c-4.237-.847-7.363.043-10.647-1.279-2.879-1.162-4.439-7.535-4.439-7.535z" fill="#242263"/><path data-name="Path 8824" d="M171.936 482.711l-30.172 1.855s25.357 56.908 28.473 63.425 18.98 53.541 18.98 53.541l12.252-4.533s-13.951-49.008-15.65-53.259-13.883-61.029-13.883-61.029z" fill="#f05260"/><path data-name="Path 8825" d="M161.708 504.982c.983-5.05 1.674-11.6 2.775-16.631.436-1.993 3.223-2.094 3.434-4.079a5.749 5.749 0 01-1.208-1.239l-24.946 1.533s25.357 56.908 28.473 63.425c.308.643.744 1.7 1.275 3.049a53.217 53.217 0 00-.138-3.272c-.653-8.786-10.781-37.051-9.665-42.786z" fill="#ca0045" opacity=".32" style="mix-blend-mode:multiply;isolation:isolate"/><path data-name="Path 8826" d="M163.438 485.26h-25.779a39.09 39.09 0 00-2.977 20.397c1.557 11.048 1.934 36.29 1.747 39.122s-17.263 41.548-19.247 52.124l11.881 4.249s23.42-47.875 24.174-49.008 10.201-66.884 10.201-66.884z" fill="#f05260"/><path data-name="Path 8827" d="M170.664 473.783s5.1 7.365 8.64 6.8 25.07-15.439 25.07-15.439l-1.981-4.816s-19.688 13.458-21.672 12.889-4.533-5.948-4.533-5.948z" fill="#fcd4ca"/><path data-name="Path 8828" d="M170.664 473.783s5.1 7.365 8.64 6.8 25.07-15.439 25.07-15.439l-1.981-4.816s-19.688 13.458-21.672 12.889-4.533-5.948-4.533-5.948z" fill="#e8a393"/><path data-name="Path 8829" d="M130.955 493.948s25.874 5.854 45.7-1.322c0 0-4.437-18.319-6-28.518s-3.635-26.251-9.489-30.218-9.775-4.579-9.775-4.579-1.133 3.823-4.673 4.673-10.766-4.673-10.766-4.673-16.43 7.567-18.3 10.632c-3.831 6.278 11.506 23.646 13.772 32.852s-.469 21.153-.469 21.153z" fill="#f8931d"/><path data-name="Path 8830" d="M144.005 470.427c-1.206-4.212-1.087-13.618-6.071-18.372-2.877-2.747-6.394-7.006-10.667-7.746-5.161-.894-5.5.174-10.119-.9.963 7.786 12.347 21.536 14.279 29.383 2.266 9.207-.472 21.153-.472 21.153a112.429 112.429 0 0022.7 2.248c-4.653-7.855-7.262-17.413-9.65-25.766z" fill="#d66900"/><path data-name="Path 8831" d="M132.702 417.555s5.806 10.34 2.974 13.456c0 0 7.79 7.081 13.88 4.107s2.56-5.646 2.56-5.646-4.259-1.861-6.383-10.784-13.031-1.133-13.031-1.133z" fill="#fcd4ca"/><path data-name="Path 8832" d="M138.852 433.334a12.8 12.8 0 0110.486-6.397 21.627 21.627 0 01-3.6-8.25c-2.126-8.925-13.032-1.133-13.032-1.133s5.806 10.34 2.974 13.456a24.348 24.348 0 003.172 2.324z" fill="#e8a393"/><path data-name="Path 8833" d="M129.443 397.087a6.636 6.636 0 11-6.635-6.586 6.61 6.61 0 016.635 6.586z" fill="#242263"/><path data-name="Path 8834" d="M142.917 396.592s4.3 1.275 5.3 5.029.5 2.195 1.344 2.69 5.313 3.825 4.958 4.391a14.375 14.375 0 01-3.187 2.266s.993 1.7 2.268 4.038-7.012 5.24-9.915 4.178-10.135-5.67-10.417-12.608 2.867-12.039 9.649-9.984z" fill="#fcd4ca"/><path data-name="Path 8835" d="M125.36 396.592s5.37-2.55 7.89-3.683 5.447-2.834 9.13-1.983 7.022 4.664 5.068 8.99c0 0-2.613-3.56-5.163-2.828s-1.983 4.6-3.4 6.586 1.322 9 2.832 10.732c0 0 9.823.764 11.062-.876 0 0 .884 1.334 2.159 3.742s3.4 5.879.353 7.508-12.252-.071-13.032-.851-3.3-7.383-6.162-6.373-2.06 2.662-2.06 2.662-1.764 1.16-5.8-2.238-4.348-7.64-3.541-11.261a51.989 51.989 0 00.664-10.127z" fill="#242263"/><path data-name="Path 8836" d="M138.3 413.846a20.3 20.3 0 00-3.2-4.4c-1.6-1.439-4.1.278-3.462 3.4s7.645 2.634 6.662 1z" fill="#fcd4ca"/><g data-name="Group 3833"><path data-name="Path 8837" d="M163.438 436.259a19.7 19.7 0 010 7.075c-.756 3.211-17.36 26.44-15.668 31.729s16.612 14.164 20.579 13.219 18.846-22.552 22.256-22.475 41.767 4.723 54.986-24.739.568-47.4-6.231-54.581-38.532-23.679-64.212-1.7c-20.964 17.942-11.71 44.397-11.71 51.472z" fill="#fbd804"/><g data-name="Group 3831"><g data-name="Group 3830"><path data-name="Path 8838" d="M166.833 456.648s16.01-19.546 16.86-23.513 2.266-19.12 2.832-22.1 4.819-3.491 4.079.993c-.632 3.831-1.53 17.989-3.087 22.8s-17.142 26.353-17.142 26.353z" fill="#82cec2"/><path data-name="Path 8839" d="M178.376 465.969s14.776-20.5 18.39-22.335 17.9-7.1 20.628-8.417 2.135-5.554-2.007-3.687c-3.541 1.595-16.993 6.1-21.246 8.844s-21.056 23.334-21.056 23.334z" fill="#82cec2"/><g data-name="Group 3829"><path data-name="Path 8840" d="M217.829 432.333c-3.635-.774-8.384-4.111-11.048-7.7h-.14c-4.22 0-7.472-3.667-8.784-7.825-4.393-1.2-9.152-4.527-9.864-5.041l1.318-1.839a36.7 36.7 0 008 4.322c-.4-3.491.8-6.023 3.154-6.615a4.272 4.272 0 015.5 2.763 5.322 5.322 0 01-3.322 6.523 5.991 5.991 0 01-2.212.312c1 2.351 2.751 4.358 4.9 4.956a6.7 6.7 0 01-.586-2.281c-.061-1.145.259-3.205 3.1-4.139a4.262 4.262 0 014.689.87 4.158 4.158 0 01.547 4.486 5.812 5.812 0 01-3.708 3.114c2.339 2.678 5.986 5.25 8.928 5.875zm-8.141-14.616a3.663 3.663 0 00-1.135.205c-1.437.474-1.581 1.245-1.547 1.865a5.634 5.634 0 00.9 2.479 3.914 3.914 0 003.1-2.06 1.936 1.936 0 00-.154-2.045 1.515 1.515 0 00-1.164-.444zm-9.984-2.816a4.384 4.384 0 002.151-.1 3.056 3.056 0 001.948-3.724c-.355-1.143-1.372-1.595-2.787-1.241s-1.662 2.518-1.445 4.261c.034.263.077.533.132.804z" fill="#82cec2"/></g></g></g><g data-name="Group 3832"><path data-name="Path 8841" d="M175.893 456.876c-3.381-3.006-8.479-5.751-10.535-9.971-.671-1.374-1.253-2.777-1.812-4.188-.036.205-.061.415-.109.616-.756 3.211-17.36 26.44-15.668 31.729s16.612 14.164 20.579 13.219c3.564-.849 15.915-18.335 20.863-21.826a68.826 68.826 0 01-13.318-9.579z" fill="#1e1ea4"/><path data-name="Path 8842" d="M181.885 474.065a139.024 139.024 0 013.8-4.306c-13.28-5.3-21.265-17.944-24-22.974-.91 1.559-2.1 3.5-3.4 5.641 6.294 10.275 18.293 18.386 23.6 21.639z" fill="#242263"/><path data-name="Path 8843" d="M175.568 481.501a401.975 401.975 0 003.578-4.2c-12.288-5.53-19.779-17.2-22.5-22.161a254.941 254.941 0 00-3.349 5.69c5.899 9.469 16.585 17.069 22.271 20.671z" fill="#242263"/><path data-name="Path 8844" d="M172.588 484.806c-11.161-5.6-18.106-16.154-20.88-21.113a60.358 60.358 0 00-2.964 6.221c5.3 7.983 13.845 14.547 19.562 18.372a.312.312 0 01.043 0c.917-.223 2.433-1.573 4.239-3.48z" fill="#242263"/></g></g><path data-name="Path 8845" d="M134.825 459.056s7.365 15.157 8.925 15.3 28.4-1.983 30.346-3.116a22.915 22.915 0 003-2.495 15.186 15.186 0 011.387-1.091 15.73 15.73 0 001.733-.979c.414-.349 1.881-2.526 2.708-2.321.655.162.6.663.486 1.19-.152.679-1.084 1.324-1.535 1.81-.259.276-1.028 1.06-.892 1.5.182.6 1.512-.452 1.814-.643a5.224 5.224 0 001.237-1.066 16.92 16.92 0 001.133-1.5c.215-.314.422-.649.632-.961.353-.529.669-1 .975-1.559.231-.416.6-.892 1.127-.61.59.318.01 1.3-.221 1.725a14.594 14.594 0 00-.657 1.36c-.13.312-.645.839-.468 1.206a7.354 7.354 0 001.468-1.68c.27-.361 1.646-2.619 2.276-2.179 1 .7-.2 2.177-.659 2.8a6.609 6.609 0 01-1.028 1.145c-.172.14-.908.934-.778.922.947-.093 1.63-1.526 2.216-2.2.363-.416 1.514-1.63 1.676-.418a1.885 1.885 0 01-.489 1.277 6.7 6.7 0 01-1.482 1.6 5.378 5.378 0 00-.965 1.087c.707-.018 2.1-1.816 2.741-1.334.416.314-.039 1.172-.27 1.431-1.63 1.822-4.111 3.043-6.231 4.192a65.434 65.434 0 01-7.142 3.314c-3.479 1.376-33 10.622-36.543 10.2s-12.889-18.518-15.581-23.778 9.061-4.129 9.061-4.129z" fill="#fcd4ca"/><path data-name="Path 8846" d="M124.77 467.272s9.347-3.464 14.731-8.319c0 0-12.055-27.091-20.618-20.294s5.887 28.613 5.887 28.613z" fill="#f8931d"/><path data-name="Path 8847" d="M133.404 410.604a2.475 2.475 0 012.678 1.03c.967 1.419.211 3.45-.8 2.546s-.5-1.537-.616-2.2a2.05 2.05 0 00-1.262-1.376z" fill="#e8a393"/><path data-name="Path 8848" d="M203.543 464.284c.464-.3 1.1.028 1.9.724-1.052-1.312-2.309-2.672-1.072-2.852 1.2-.176 2.025 1.676 2.893 2.252-.464-.645-3.205-2.552-2.137-3.985.634-.851 3.566 2.481 4.176 3.146-.572-.543-3.043-3.146-1.731-3.681 1.182-.484 2.876 1.743 3.716 2.453.618.519 1.486.949 1.63 1.8.28 1.656-2.139 2.787-3.395 3.14a6.516 6.516 0 01-4.942-.827c-.85-.497-1.503-1.868-1.038-2.17z" fill="#fcd4ca"/></g></g></svg>