<svg data-name="Iconly/Light/Notification" xmlns="http://www.w3.org/2000/svg" width="16" height="16"><path d="M2.333 9.191v-.146a2.4 2.4 0 01.4-1.212 3.247 3.247 0 00.8-1.542c0-.444 0-.895.039-1.339a4.332 4.332 0 014.402-3.619h.052a4.344 4.344 0 014.407 3.618c.039.444 0 .895.032 1.339a3.3 3.3 0 00.8 1.549 2.338 2.338 0 01.4 1.206v.14a2.378 2.378 0 01-.563 1.593 3 3 0 01-1.9.914 30.052 30.052 0 01-6.41 0 3.036 3.036 0 01-1.9-.914 2.4 2.4 0 01-.559-1.587zm4.037 4.71a2.04 2.04 0 001.358.751 2.059 2.059 0 001.5-.415 1.924 1.924 0 00.35-.336" fill="none" stroke="#fff" stroke-linecap="round" stroke-linejoin="round" stroke-miterlimit="10" stroke-width="1.5"/></svg>