<svg data-name="Iconly/Light-outline/Plus" xmlns="http://www.w3.org/2000/svg" width="24" height="24"><path data-name="Plus" d="M7.641 22a5.478 5.478 0 01-4.092-1.642A6.024 6.024 0 012 16.107V7.893a6.018 6.018 0 011.552-4.249A5.475 5.475 0 017.641 2h8.717a5.478 5.478 0 014.092 1.643A6.024 6.024 0 0122 7.893v8.213a6.024 6.024 0 01-1.549 4.251A5.478 5.478 0 0116.359 22zM3.395 7.893v8.213c0 2.732 1.667 4.5 4.246 4.5h8.717c2.579 0 4.246-1.766 4.246-4.5V7.893c0-2.732-1.667-4.5-4.246-4.5H7.641c-2.579.002-4.246 1.768-4.246 4.5zm7.914 7.6L11.3 15.4v-2.712H8.589a.7.7 0 01-.095-1.388l.095-.006H11.3v-2.71a.7.7 0 011.389-.095l.006.095v2.71h2.714a.7.7 0 01.095 1.389l-.095.006H12.7V15.4a.7.7 0 01-1.389.094z" fill="#8d9199"/></svg>