<svg xmlns="http://www.w3.org/2000/svg" width="116.476" height="33.466"><defs><linearGradient id="b" x1=".877" y1=".332" x2=".897" y2=".332" gradientUnits="objectBoundingBox"><stop offset="0" stop-color="#11aae2"/><stop offset=".594" stop-color="#0880b7"/><stop offset="1" stop-color="#016197"/></linearGradient><clipPath id="a"><path data-name="Path 8961" d="M17.282 36.358a5.967 5.967 0 00-2.955 5.14 6.7 6.7 0 00.987 3.171 2.223 2.223 0 01-.876 3.171 2.342 2.342 0 01-3.171-.876 9.917 9.917 0 00-2.407-2.406 5.73 5.73 0 00-5.9 0 5.952 5.952 0 000 10.285 5.73 5.73 0 005.9 0 6.031 6.031 0 002.3-2.406 2.252 2.252 0 013.171-.876 2.449 2.449 0 01.876 3.171 6.581 6.581 0 00-.876 3.171 5.955 5.955 0 002.955 5.14 5.73 5.73 0 005.9 0 5.947 5.947 0 000-10.279A6.594 6.594 0 0019.9 52a2.3 2.3 0 110-4.591 6.884 6.884 0 003.282-.765 5.947 5.947 0 000-10.279 5.659 5.659 0 00-2.955-.765 5.635 5.635 0 00-2.95.76" transform="translate(0 -35.598)"/></clipPath></defs><path data-name="Path 8959" d="M42.431 12.685a5.894 5.894 0 00-1.641-.216c-1.968 0-4.047 1.53-4.047 3.5v9.3h-4.486V8.749h4.264v1.641a6.323 6.323 0 014.813-1.968c.654 0 .987.111 1.53.111l-.432 4.153zM47.465 0a2.849 2.849 0 11-3.066 2.844A3.019 3.019 0 0147.465 0m2.185 25.266h-4.485V8.749h4.485zM62.773 8.422a7.969 7.969 0 00-4.812 1.641V8.749h-4.374v24.717h4.485v-9.4a7.161 7.161 0 004.485 1.53 8.18 8.18 0 006.232-2.844 8.719 8.719 0 002.079-5.794 8.25 8.25 0 00-8.095-8.533m-.543 13.123a4.359 4.359 0 01-4.591-4.591 4.359 4.359 0 014.591-4.591 4.418 4.418 0 014.264 4.591 4.42 4.42 0 01-4.264 4.591M93.395.987h4.485v24.279h-4.485zm22.532 21.651a9.269 9.269 0 01-6.781 2.955 8.263 8.263 0 01-8.638-8.638c0-4.591 3.171-8.638 8.095-8.638 4.591 0 7.873 3.826 7.873 8.422a5.266 5.266 0 01-.111 1.314h-11.593a4.339 4.339 0 004.485 3.936 6.2 6.2 0 004.158-1.857zm-4.158-7.762a3.329 3.329 0 00-3.282-2.955 3.459 3.459 0 00-3.5 2.955zM82.677 8.422a7.969 7.969 0 00-4.812 1.641V8.749h-4.264v24.717h4.485v-9.4a7.162 7.162 0 004.485 1.53 8.18 8.18 0 006.232-2.844 8.719 8.719 0 002.079-5.794 8.412 8.412 0 00-8.206-8.533m-.543 13.123a4.359 4.359 0 01-4.591-4.591 4.359 4.359 0 014.591-4.591 4.418 4.418 0 014.264 4.591 4.42 4.42 0 01-4.264 4.591" fill="#474d55"/><g data-name="Group 3977" transform="translate(0 1.974)" clip-path="url(#a)"><path data-name="Path 8960" d="M-230.95-201.2l27.339 27.45-27.339 27.339-27.45-27.339z" transform="translate(244.073 188.071)" fill="url(#b)"/></g></svg>