<svg data-name="Iconly/Bold/Plus" xmlns="http://www.w3.org/2000/svg" width="24" height="24"><path data-name="Plus" d="M16.67 22H7.33a5.349 5.349 0 01-3.944-1.394A5.356 5.356 0 012 16.67V7.33a5.358 5.358 0 011.386-3.944A5.358 5.358 0 017.33 2h9.33a5.372 5.372 0 013.945 1.386A5.345 5.345 0 0122 7.33v9.34c0 3.387-1.943 5.33-5.33 5.33zM8.33 11.16a.819.819 0 00-.83.83.839.839 0 00.83.84h2.83v2.83a.83.83 0 101.66 0v-2.83h2.84a.835.835 0 000-1.669h-2.84V8.34a.83.83 0 10-1.66 0v2.82z" fill="#fff"/></svg>