<svg xmlns="http://www.w3.org/2000/svg" width="16.686" height="13.162" viewBox="0 0 16.686 13.162">
  <g id="Group_3978" data-name="Group 3978" transform="translate(-1160.257 -306)">
    <path id="Path_8069" data-name="Path 8069" d="M16.308,36.714H9.677A1.681,1.681,0,0,0,8.064,35.4a1.644,1.644,0,0,0-1.613,1.314H.358a.358.358,0,0,0,0,.717H6.432a1.681,1.681,0,0,0,1.613,1.314,1.644,1.644,0,0,0,1.613-1.314h6.651a.358.358,0,1,0,0-.717ZM8.064,38.048a.956.956,0,0,1-.956-.956.944.944,0,0,1,.956-.956.956.956,0,0,1,0,1.912Z" transform="translate(1160.257 270.6)" fill="#8d9199"/>
    <path id="Path_8070" data-name="Path 8070" d="M16.328,135.514H6.272A1.681,1.681,0,0,0,4.659,134.2a1.644,1.644,0,0,0-1.613,1.314H.358a.358.358,0,1,0,0,.717H3.047a1.681,1.681,0,0,0,1.613,1.314,1.644,1.644,0,0,0,1.613-1.314H16.328a.358.358,0,1,0,0-.717ZM4.659,136.828a.956.956,0,0,1-.956-.956.969.969,0,0,1,.956-.956.956.956,0,0,1,0,1.912Z" transform="translate(1160.257 176.718)" fill="#8d9199"/>
    <path id="Path_8071" data-name="Path 8071" d="M16.308,233.914H13.182a1.681,1.681,0,0,0-1.613-1.314,1.644,1.644,0,0,0-1.613,1.314H.358a.358.358,0,1,0,0,.717H9.936a1.681,1.681,0,0,0,1.613,1.314,1.644,1.644,0,0,0,1.613-1.314h3.146a.358.358,0,1,0,0-.717Zm-4.759,1.334a.956.956,0,1,1,.956-.956A.944.944,0,0,1,11.549,235.248Z" transform="translate(1160.257 83.217)" fill="#8d9199"/>
  </g>
</svg>
