<svg id="Iconly_Light_Notification" data-name="Iconly/Light/Notification" xmlns="http://www.w3.org/2000/svg" width="16" height="16" viewBox="0 0 16 16">
  <g id="Notification" transform="translate(2.333 1.333)">
    <path id="Path_425" d="M0,7.858V7.712A2.4,2.4,0,0,1,.4,6.5a3.247,3.247,0,0,0,.8-1.542c0-.444,0-.895.039-1.339A4.332,4.332,0,0,1,5.641,0h.052A4.344,4.344,0,0,1,10.1,3.618c.039.444,0,.895.032,1.339a3.3,3.3,0,0,0,.8,1.549,2.338,2.338,0,0,1,.4,1.206v.14a2.378,2.378,0,0,1-.563,1.593,3,3,0,0,1-1.9.914,30.052,30.052,0,0,1-6.41,0,3.036,3.036,0,0,1-1.9-.914A2.4,2.4,0,0,1,0,7.858Z" transform="translate(0 0)" fill="none" stroke="#fff" stroke-linecap="round" stroke-linejoin="round" stroke-miterlimit="10" stroke-width="1.5"/>
    <path id="Path_421" d="M0,0A2.04,2.04,0,0,0,1.358.751a2.059,2.059,0,0,0,1.5-.415A1.924,1.924,0,0,0,3.208,0" transform="translate(4.037 12.568)" fill="none" stroke="#fff" stroke-linecap="round" stroke-linejoin="round" stroke-miterlimit="10" stroke-width="1.5"/>
  </g>
</svg>
