<svg xmlns="http://www.w3.org/2000/svg" width="20.644" height="12.193" viewBox="0 0 20.644 12.193">
  <g id="down-arrow_3_" data-name="down-arrow (3)" transform="translate(20.644 112.891) rotate(180)">
    <g id="Group_3378" data-name="Group 3378" transform="translate(0 100.698)">
      <path id="Path_7539" data-name="Path 7539" d="M20.314,101.717l-.676-.681a1.132,1.132,0,0,0-1.6,0l-7.714,7.714L2.6,101.028a1.132,1.132,0,0,0-1.6,0L.33,101.7a1.13,1.13,0,0,0,0,1.6l9.195,9.228a1.154,1.154,0,0,0,.8.362h0a1.154,1.154,0,0,0,.8-.362l9.186-9.2a1.141,1.141,0,0,0,.33-.807A1.129,1.129,0,0,0,20.314,101.717Z" transform="translate(0 -100.698)" fill="#fff"/>
    </g>
  </g>
</svg>
